<svg id="SvgjsSvg1006" width="288" height="288" xmlns="http://www.w3.org/2000/svg" version="1.1" xmlns:xlink="http://www.w3.org/1999/xlink" xmlns:svgjs="http://svgjs.com/svgjs"><defs id="SvgjsDefs1007"></defs><g id="SvgjsG1008" transform="matrix(1,0,0,1,0,0)"><svg xmlns="http://www.w3.org/2000/svg" enable-background="new 0 0 288 288" viewBox="0 0 288 288" width="288" height="288"><path fill="#0ab9ff" d="M60.2,87c1.4,0,2.5-1.1,2.5-2.5S61.5,82,60.2,82c-1.4,0-2.5,1.1-2.5,2.5S58.8,87,60.2,87z M100.1,183.3
			c1,0,1.8-0.8,1.8-1.8c0-1-0.8-1.8-1.8-1.8s-1.8,0.8-1.8,1.8C98.3,182.5,99.1,183.3,100.1,183.3z M224.7,76.2
			c1.4,0,2.6-1.2,2.6-2.6c0-1.4-1.2-2.6-2.6-2.6c-1.4,0-2.6,1.2-2.6,2.6C222.1,75,223.3,76.2,224.7,76.2z M130.1,73.2
			c0.6,0,1.1-0.5,1.1-1.1s-0.5-1.1-1.1-1.1c-0.6,0-1.1,0.5-1.1,1.1S129.5,73.2,130.1,73.2z" class="color06f svgShape"></path><path fill="#cce0ff" d="M62.9,77.1c1,0,1.8-0.8,1.8-1.8c0-1-0.8-1.8-1.8-1.8c-1,0-1.8,0.8-1.8,1.8C61.2,76.3,62,77.1,62.9,77.1z
			 M104.7,179.4c0.5,0,1-0.4,1-1c0-0.5-0.4-1-1-1c-0.5,0-1,0.4-1,1C103.7,179,104.1,179.4,104.7,179.4z M130.7,67.6
			c0.6,0,1.1-0.5,1.1-1.1c0-0.6-0.5-1.1-1.1-1.1c-0.6,0-1.1,0.5-1.1,1.1C129.6,67.1,130.1,67.6,130.7,67.6z M218.6,68.4
			c0.4,0,0.7-0.3,0.7-0.7c0-0.4-0.3-0.7-0.7-0.7c-0.4,0-0.7,0.3-0.7,0.7C217.9,68.1,218.2,68.4,218.6,68.4z" class="colorcce0ff svgShape"></path><path fill="#0ab9ff" d="M215.1,145.2c0.5-1,1.7,0.3,2,0.7c0.3,0.4,0.8,0.8,1.3,0.9c1,0.2,1.5-0.7,2.3-1.1c1.1-0.5,1.4,1.4,2.2,1.8
			c0.4,0.2,0.7,0.1,1.1,0c0.4-0.1,0.8-0.4,1.3-0.3c0.6,0.2,1,0.6,1.1,1.2c0,0.4,0.6,0.4,0.6,0c-0.1-1.2-1.2-2.1-2.4-1.8
			c-0.5,0.1-1,0.5-1.5,0.2c-0.3-0.2-0.4-0.6-0.6-0.9c-0.3-0.4-0.6-0.8-1.1-0.9c-0.6-0.1-1,0.2-1.5,0.6c-0.5,0.3-0.8,0.7-1.4,0.6
			c-0.6-0.1-0.9-0.6-1.3-1c-0.6-0.7-2.1-1.4-2.7-0.3C214.4,145.2,214.9,145.5,215.1,145.2z M219.6,149.3c0.9-0.1,1.8,0.1,2.5,0.7
			c0.5,0.4,0.6,0.9,1,1.4c0.7,1,1.5,0.1,2.4,0c1.4-0.2,2.1,1.5,3.4,1.7c0.8,0.1,1.5-0.2,1.8-0.9c0.1-0.3-0.4-0.5-0.6-0.2
			c-0.7,1.6-2.8-0.6-3.5-1c-0.3-0.2-0.7-0.3-1.1-0.2c-0.5,0-1.4,0.8-1.9,0.3c-0.3-0.3-0.4-0.8-0.7-1.1c-0.3-0.3-0.6-0.6-0.9-0.8
			c-0.8-0.5-1.7-0.6-2.6-0.5C219,148.8,219.2,149.3,219.6,149.3z M45.2,116.9c-0.2-1.2-0.3-2.3,1.1-2.8c0.5-0.2,1.1-0.3,1.6-0.7
			c0.8-0.7,0.8-1.8,0.7-2.8c0-0.7-0.2-1.8,0.9-1.5c0.3,0.1,0.7,0.2,1.1,0.1c0.3-0.1,0.4-0.4,0.5-0.6c0.2-0.6,0-1,0.5-1.5
			c0.4-0.4,0.9-0.5,1.5-0.4c0.4,0.1,0.4-0.5,0-0.6c-0.6-0.1-1.2,0.1-1.7,0.4c-0.6,0.5-0.6,1-0.8,1.7c-0.3,1-1,0.2-1.7,0.3
			c-0.4,0.1-0.6,0.4-0.7,0.8c-0.2,0.8,0.1,1.6,0.1,2.4c-0.1,1.5-1,1.6-2.1,2c-1.5,0.6-1.5,2-1.2,3.4
			C44.7,117.4,45.3,117.2,45.2,116.9z M51.7,113c-1.2-1.5,0.2-3,1.8-2.8c0.5,0,0.9,0,1.1-0.4c0.3-0.6,0.2-1.4,0.5-2
			c0.4-1.1,1.3-1.8,2.4-2.2c0.3-0.1,0.2-0.7-0.2-0.6c-1,0.3-1.8,0.9-2.4,1.7c-0.3,0.5-0.6,1-0.7,1.6c0,0.2,0,0.6-0.1,0.7
			c-0.2,0.5-0.6,0.4-1.1,0.5c-2.1,0.1-3.2,2.1-1.9,3.9C51.5,113.8,51.9,113.3,51.7,113z" class="color06f svgShape"></path><path fill="#cce0ff" d="M106.6,64.7c-0.3-1.1,0.7-2.2,1.8-1.6c1.2,0.6,0.8,2.3-0.5,2.5c-0.4,0-0.4,0.6,0,0.6c1.7-0.2,2.5-2.4,1-3.5
			c-1.5-1-3.3,0.5-2.8,2.2C106.1,65.2,106.7,65.1,106.6,64.7z M170.9,174.7c-0.8,0.9,0.3,1.8,1.1,2.1c0.6,0.3,1.1,0.6,1.2,1.3
			c0,0.3,0,0.7,0.1,1c0.1,0.3,0.2,0.5,0.3,0.7c0.3,0.3,1.3,0.6,1.2,1.1c-0.1,0.4,0.5,0.5,0.6,0.2c0.1-0.5,0-0.8-0.4-1.2
			c-0.3-0.2-0.7-0.3-0.9-0.5c-0.4-0.4-0.3-1-0.3-1.5c-0.1-0.4-0.2-0.8-0.6-1.1c-0.4-0.3-2.5-0.8-1.9-1.6
			C171.5,174.8,171.1,174.4,170.9,174.7z M173.4,172.7c-0.2,0.4,0,0.8,0.3,1.1c0.3,0.3,0.9,0.3,1.1,0.6c0.3,0.3,0.3,0.8,0.3,1.2
			c0.1,0.5,0.3,0.9,0.8,1.2c0.4,0.2,0.8,0.3,1.1,0.5c0.6,0.4,1,1.1,1.1,1.8c0,0.4,0.6,0.4,0.6,0c-0.2-1.4-1-2.2-2.2-2.7
			c-1-0.4-0.7-1.2-1-2c-0.1-0.3-0.2-0.4-0.4-0.6c-0.3-0.2-1.4-0.4-1.2-1C174.1,172.5,173.6,172.4,173.4,172.7z M180.2,56.2
			c-0.6-0.8,0.6-1.4,1.2-1.4c0.4-0.1,0.9,0,1.4-0.1c0.6-0.1,1.2-0.4,1.6-0.9c0.4-0.4,0.4-0.9,0.6-1.4c0.1-0.3,0.3-0.9,0.7-1
			c0.1-0.1,0.5,0,0.6,0c0.3,0,0.6,0,1-0.1c0.4-0.1,0.2-0.6-0.2-0.6c-0.8,0.2-1.8-0.3-2.4,0.4c-0.2,0.3-0.2,0.6-0.3,0.9
			c-0.1,0.9-0.5,1.7-1.5,1.9c-1,0.3-2.2-0.1-3,0.7c-0.5,0.5-0.7,1.2-0.3,1.7C179.9,56.8,180.4,56.5,180.2,56.2z M186.1,56
			c0-1,0.5-1.9,1.4-2.4c0.6-0.4,1.4-0.3,2.1-0.3c1,0,1.9,0,2.6-0.9c0.2-0.3-0.3-0.6-0.5-0.3c-0.9,1.1-3,0.3-4.2,0.9
			c-1.1,0.5-1.8,1.7-1.9,3C185.5,56.3,186.1,56.3,186.1,56z M106.8,121.5c0.2,0,0.3-0.1,0.5-0.1c0.1,0.2,0.2,0.4,0.2,0.5
			c0,0.3-0.1,0.5-0.1,0.8c0,0.3-0.1,0.5-0.1,0.8c0,0.4,0.2,0.9,0.6,1.1c0.6,0.3,1.2-0.1,1.8,0.2c0.8,0.4,1.2,1.3,1.6,2.1
			c0.2,0.3,0.7,0,0.5-0.3c-0.4-0.8-0.9-1.8-1.7-2.2c-0.4-0.2-0.7-0.2-1.2-0.3c-0.5,0-0.6,0.5-1.1-0.4c-0.1-0.3,0-0.8,0.1-1.1
			c0.1-0.7,0.1-1.5-0.6-1.8c-0.5-0.2-1.1,0-1.2,0.6C106.1,121.7,106.7,121.8,106.8,121.5z M110.7,120.8c-0.6,0.4-0.3,1,0.1,1.5
			c0.4,0.5,0.9,0.9,1.3,1.5c0.4,0.7,0.8,1.4,1,2.1c0.1,0.3,0.7,0.2,0.6-0.2c-0.3-0.8-0.6-1.6-1-2.3c-0.2-0.3-1.8-2-1.6-2.1
			C111.3,121.1,111.1,120.6,110.7,120.8z" class="colorcce0ff svgShape"></path><path fill="#e8e8e8" d="M82.7,76.5c0.6,7.2,1.2,14.5-0.3,21.6c-0.1,0.4,0.5,0.5,0.6,0.2c1.5-7.2,0.9-14.5,0.3-21.8
			C83.3,76.1,82.7,76.1,82.7,76.5z" class="colore8e8e8 svgShape"></path><path fill="#e8e8e8" d="M83.1,76.7c3.6,0.2,7.2,0.2,10.7,0c3.1-0.2,6.4-0.2,9.3-1.4c0.3-0.2,0-0.7-0.3-0.5c-3,1.3-6.6,1.2-9.8,1.4
			c-3.3,0.1-6.7,0.1-10,0C82.7,76.1,82.7,76.7,83.1,76.7z" class="colore8e8e8 svgShape"></path><path fill="#e8e8e8" d="M102.6,75.2c1.9,7.1,2.3,14.5,1.3,21.7c-0.1,0.4,0.5,0.5,0.6,0.2c1-7.4,0.6-14.9-1.3-22.1
			C103.1,74.7,102.5,74.8,102.6,75.2z" class="colore8e8e8 svgShape"></path><path fill="#e8e8e8" d="M82.6,98.4c3.8,0.9,7.8,0.9,11.7,0.7c2-0.1,4-0.4,6-0.6c1.4-0.2,2.9-0.3,4.1-1.2c0.3-0.2-0.1-0.6-0.4-0.4
			c-1.3,1-3.4,1-4.9,1.1c-1.8,0.2-3.6,0.4-5.4,0.5c-3.6,0.2-7.3,0.1-10.8-0.7C82.4,97.8,82.2,98.3,82.6,98.4z M84.1,96.7
			c0.5,0,0.9-0.1,1.4-0.2c0.6,0,1.1,0,1.6,0.2c0.4,0.1,0.5-0.5,0.2-0.6c-0.5-0.1-1-0.2-1.6-0.2c-0.5,0-1.1,0.2-1.6,0.2
			C83.8,96.1,83.8,96.7,84.1,96.7z M84.5,95.3c1,0,1.9,0,2.9,0c0.4,0,0.4-0.6,0-0.6c-0.9,0-1.9,0-2.9,0
			C84.1,94.7,84.1,95.3,84.5,95.3z M84.7,93.9c0.9,0,1.7,0.1,2.5,0.1c0.4,0,0.4-0.6,0-0.6c-0.9,0-1.7-0.1-2.5-0.1
			C84.3,93.3,84.3,93.9,84.7,93.9z M85,90.2c1-0.1,1.9-0.2,2.9-0.2c0.4,0,0.4-0.6,0-0.6c-1,0-1.9,0-2.9,0.2
			C84.6,89.7,84.6,90.3,85,90.2z M85.1,88.7c0.9,0,1.8,0,2.7,0.1c0.4,0,0.4-0.6,0-0.6c-0.9,0-1.8,0-2.7-0.1
			C84.8,88.1,84.8,88.7,85.1,88.7z M85,87.4c0.8,0.1,1.6,0,2.5,0c0.4,0,0.4-0.6,0-0.6c-0.8,0.1-1.6,0.1-2.5,0
			C84.6,86.7,84.6,87.3,85,87.4z M85.1,83.6c1-0.2,2-0.3,3.1-0.3c0.4,0,0.4-0.6,0-0.6c-1.1,0-2.2,0.1-3.2,0.3
			C84.6,83.2,84.7,83.7,85.1,83.6z M85,82.2c1.1,0,2.2,0,3.3,0c0.4,0,0.4-0.6,0-0.6c-1.1,0.1-2.2,0.1-3.3,0
			C84.6,81.6,84.6,82.2,85,82.2z M84.6,80.7c1.2,0,2.4,0,3.6-0.1c0.4,0,0.4-0.6,0-0.6c-1.2,0.1-2.4,0.2-3.6,0.1
			C84.3,80.1,84.3,80.7,84.6,80.7z M91.1,80.2c3-0.4,6-0.7,9.1-0.6c0.4,0,0.4-0.6,0-0.6c-3.1,0-6.2,0.2-9.2,0.6
			C90.6,79.7,90.7,80.2,91.1,80.2z M91.7,81.3c3-0.3,6-0.4,9-0.5c0.4,0,0.4-0.6,0-0.6c-3,0.1-6,0.3-9,0.5
			C91.3,80.7,91.3,81.3,91.7,81.3z M91.5,82.6c3.1-0.2,6.2,0.2,9.3-0.1c0.4,0,0.4-0.6,0-0.6c-3.1,0.3-6.2,0-9.3,0.1
			C91.1,82,91.1,82.6,91.5,82.6z M89.6,87.4c1.4,0,2.7,0,4.1,0c0.4,0,0.4-0.6,0-0.6c-1.4,0-2.7,0-4.1,0
			C89.2,86.8,89.2,87.4,89.6,87.4z M89.8,88.8c1.5,0,2.9-0.1,4.4-0.1c0.4,0,4.3-0.2,4.3-0.2c0.1,0.3,0.7,0.2,0.6-0.2
			c-0.1-0.4-0.5-0.3-0.8-0.3c-0.9,0-1.8,0-2.7,0.1c-1.9,0-3.8,0.1-5.7,0.1C89.4,88.3,89.4,88.8,89.8,88.8z M89.8,90.3
			c1.2,0.1,2.3,0.1,3.5,0c0.4,0,0.4-0.6,0-0.6c-1.2,0-2.3,0-3.5,0C89.4,89.7,89.4,90.3,89.8,90.3z M89.1,93.6
			c3.9-0.3,7.8-0.3,11.7-0.3c0.4,0,0.4-0.6,0-0.6c-3.9-0.1-7.8,0-11.7,0.3C88.7,93.1,88.7,93.6,89.1,93.6z M89.7,94.9
			c1,0,2,0,2.9-0.1c0.4,0,0.4-0.6,0-0.6c-1,0-2,0-2.9,0.1C89.3,94.3,89.3,94.9,89.7,94.9z M95,94.9c1.6-0.2,3.2-0.3,4.7-0.4
			c0.4,0,0.4-0.6,0-0.6c-1.6,0.1-3.2,0.2-4.7,0.4C94.6,94.3,94.6,94.9,95,94.9z M89.4,96.8c3.2,0,6.4-0.1,9.5-0.3
			c0.4,0,0.4-0.6,0-0.6c-3.2,0.1-6.4,0.2-9.5,0.3C89,96.2,89,96.8,89.4,96.8z M105,85.4c5-0.9,10.1-1.4,15.2-1.3
			c-0.1-0.1-0.2-0.1-0.3-0.2c3,9.5,4.4,19.5,4.2,29.4c0,0.4,0.6,0.4,0.6,0c0.2-10-1.3-20-4.3-29.6c0-0.1-0.2-0.2-0.3-0.2
			c-5.2,0-10.3,0.4-15.4,1.4C104.5,84.9,104.6,85.4,105,85.4z" class="colore8e8e8 svgShape"></path><path fill="#e8e8e8" d="M94.6,98.8c0.3,5.4-0.4,10.9-2.2,16c-0.1,0.3,0.4,0.5,0.6,0.2c1.8-5.2,2.6-10.6,2.3-16.1
			C95.2,98.5,94.6,98.4,94.6,98.8z" class="colore8e8e8 svgShape"></path><path fill="#e8e8e8" d="M92.5,115.2c4.9,2.1,10.2,1.9,15.4,1.4c5.6-0.5,11.2-1.5,16.6-3.1c0.3-0.1,0.2-0.7-0.2-0.6
			c-5.3,1.5-10.6,2.5-16.1,3c-5.2,0.5-10.6,0.8-15.5-1.3C92.4,114.6,92.1,115.1,92.5,115.2z" class="colore8e8e8 svgShape"></path><path fill="#cce0ff" d="M99.3,100.4c-1,0.6-2.1,1.2-3,1.9c-0.2,0.1-0.2,0.5,0.1,0.5c0.9,0.2,1.8,0.4,2.7,0.6c0.4,0.1,0.5-0.5,0.2-0.6
			c-0.9-0.2-1.8-0.4-2.7-0.6c0,0.2,0,0.3,0.1,0.5c1-0.7,2-1.3,3-1.9C99.9,100.8,99.6,100.3,99.3,100.4z M103.8,98.7
			c-1.3,2.1-2.6,4.1-3.8,6.2c-0.2,0.3,0.3,0.6,0.5,0.3c1.3-2.1,2.6-4.1,3.8-6.2C104.5,98.6,104,98.3,103.8,98.7z M104.7,103
			c1.1-0.2,2.3-0.3,3.5-0.5c0.4-0.1,0.2-0.6-0.2-0.6c-1.1,0.2-2.3,0.3-3.5,0.5C104.2,102.5,104.3,103.1,104.7,103z M110.5,99.9
			C110.5,99.9,110.5,99.9,110.5,99.9c-0.2,0-0.3,0-0.4,0.1c0,0,0,0,0,0.1c-0.1,0.1-0.1,0.2,0,0.3c0.4,0.7,1.5,0.8,2.2,1
			c0.1,0,0.3,0.1,0.4,0.1c0,0-0.1,0-0.1,0.1c0,0.1-0.6,0.6-0.7,0.7c-0.4,0.4-0.9,0.8-1.3,1.2c-0.3,0.3,0.1,0.7,0.4,0.4
			c0.5-0.5,1-1,1.6-1.5c0.3-0.3,0.8-0.6,0.7-1.1c-0.1-0.4-0.5-0.4-0.8-0.5c-0.5-0.1-1.5-0.2-1.9-0.7c0,0.1,0,0.2,0,0.3
			c0,0,0,0,0-0.1c-0.1,0-0.2,0.1-0.3,0.1c0,0,0,0,0.1,0C110.7,100.6,110.9,100,110.5,99.9z" class="colorcce0ff svgShape"></path><path fill="#e8e8e8" d="M106.5,87.3c1-0.2,2-0.2,3-0.2c0.4,0,0.4-0.6,0-0.6c-1.1,0-2.2,0-3.2,0.2C106,86.9,106.1,87.4,106.5,87.3z
			 M106.4,88.8c1.4-0.1,2.8-0.3,4.1-0.3c0.4,0,0.4-0.6,0-0.6c-1.4,0.1-2.8,0.2-4.1,0.3C106,88.3,106,88.9,106.4,88.8z M107,91
			L107,91c0.1-0.1,0.2-0.1,0.3-0.2c0,0,0,0,0,0c0.1,0,0.2,0.1,0.3,0.1c0,0,0,0,0,0c0,0.1,0,0.2,0,0.3c-0.1,0-0.1,0.1,0.1,0
			c0.1,0,0.2,0,0.3,0c0.2,0,0.4,0,0.6,0c0.4,0,0.8-0.1,1.2-0.2c0.4-0.1,0.2-0.6-0.2-0.6c-0.5,0.1-1,0.1-1.5,0.2
			c-0.3,0-0.7-0.1-0.9,0.1c-0.1,0.1-0.1,0.3,0,0.3c0.1,0.1,0.2,0.2,0.3,0.2c0.1,0,0.3-0.1,0.3-0.2v0C107.6,90.8,107.1,90.6,107,91z
			 M106.6,93.8c1.6-0.2,3.3-0.5,4.9-0.5c0.4,0,0.4-0.6,0-0.6c-1.7-0.1-3.4,0.3-5.1,0.5C106.1,93.3,106.2,93.9,106.6,93.8z
			 M112.9,86.7c1.9-0.3,3.7-0.4,5.6-0.4c0.4,0,0.4-0.6,0-0.6c-1.9,0.1-3.7,0.2-5.6,0.4C112.5,86.2,112.5,86.8,112.9,86.7z
			 M114.2,89.2c1.2-0.2,2.3-0.4,3.5-0.6c0.4-0.1,0.2-0.6-0.2-0.6c-1.2,0.2-2.3,0.4-3.5,0.6C113.7,88.7,113.9,89.2,114.2,89.2z
			 M114.6,92.6c1-0.1,2-0.1,3-0.1c0.4,0,0.4-0.6,0-0.6c-1,0-2,0-3,0.1C114.3,92,114.3,92.6,114.6,92.6z M116.4,93.7
			c1.2-0.2,2.4-0.3,3.7-0.4c0.4,0,0.4-0.6,0-0.6c-1.3,0.1-2.5,0.2-3.8,0.4C115.8,93.2,116,93.7,116.4,93.7z M97.2,108.4
			c0.4,0,0.4-0.6,0-0.6C96.8,107.9,96.8,108.4,97.2,108.4z" class="colore8e8e8 svgShape"></path><path fill="#e8e8e8" d="M96.5,107.9c0.5,0.2,1,0.1,1.5,0.1c0.7,0,1.3,0,2,0.1c0.4,0,0.4-0.5,0-0.6c-0.6-0.1-1.1-0.1-1.7-0.1
			c-0.5,0-1.1,0.1-1.6-0.1C96.3,107.2,96.2,107.8,96.5,107.9z M97.2,109.7c1.1-0.1,2.1-0.1,3.2,0.1c0.4,0,0.4-0.5,0-0.6
			c-1.1-0.1-2.1-0.2-3.2-0.1C96.9,109.1,96.9,109.7,97.2,109.7z M95.5,112.1c0.9,0.3,1.9,0.3,2.8,0.3c1.1,0,2.2,0,3.4,0
			c2,0,4.1,0.2,6-0.4c0.3-0.1,0.2-0.7-0.2-0.6c-1.9,0.6-4,0.3-5.9,0.3c-1,0-2,0-3,0c-1,0-2.1,0.1-3.1-0.3
			C95.3,111.4,95.2,112,95.5,112.1z M105.6,109.4c0.6,0,1.2-0.1,1.9-0.1c0.6,0,1.3-0.1,1.8,0.1c0.3,0.1,0.5-0.4,0.2-0.6
			c-0.6-0.2-1.1-0.2-1.7-0.1c-0.7,0-1.4,0.1-2.2,0.1C105.2,108.8,105.2,109.4,105.6,109.4z M103.2,114.6c3.1-0.1,6.2-0.3,9.3-0.5
			c0.4,0,0.4-0.6,0-0.6c-3.1,0.3-6.2,0.4-9.3,0.5C102.8,114.1,102.8,114.7,103.2,114.6z M137.9,59.3c0.9,9.2,0.7,18.4,0.5,27.6
			c0,0.4,0.6,0.4,0.6,0c0.2-9.2,0.4-18.4-0.5-27.6C138.4,59,137.9,59,137.9,59.3z" class="colore8e8e8 svgShape"></path><path fill="#e8e8e8" d="M138.2,59.5c3.9,0.2,7.8-0.9,11.7-1.4c4-0.4,8-0.4,11.9,0c0.4,0,0.4-0.5,0-0.6c-4-0.4-7.9-0.4-11.9,0
			c-3.9,0.4-7.8,1.5-11.7,1.4C137.8,59,137.8,59.5,138.2,59.5z" class="colore8e8e8 svgShape"></path><path fill="#e8e8e8" d="M161.5,58c0.5,2,0.6,4.1,0.6,6.2c0.1,2.2,0.1,4.5,0.2,6.7c0.2,4.4,0.3,8.8,0.6,13.2c0,0.4,0.6,0.4,0.6,0
			c-0.2-4.5-0.4-9.1-0.6-13.6c-0.1-2.2-0.1-4.5-0.2-6.7c-0.1-2-0.2-4-0.7-6C162,57.5,161.5,57.6,161.5,58z" class="colore8e8e8 svgShape"></path><path fill="#e8e8e8" d="M138.6,87.3c4.2,1.2,8.6,0.8,12.9,0.3c4.1-0.4,8.1-1.2,11.9-3c0.3-0.2,0-0.7-0.3-0.5
			c-3.7,1.8-7.8,2.5-11.9,2.9c-4.1,0.4-8.4,0.8-12.4-0.3C138.4,86.7,138.3,87.2,138.6,87.3z M162.6,63.2c2.4-0.4,4.8-0.5,7.2-0.3
			c1.2,0.1,2.5,0.2,3.7,0.4c0.5,0.1,1.1,0.1,1.6,0.3c0.7,0.3,0.7,0.8,0.8,1.5c0.9,4.7,1.5,9.5,1.8,14.4c0,0.4,0.6,0.4,0.6,0
			c-0.2-2.7-0.4-5.5-0.8-8.2c-0.2-1.3-0.3-2.5-0.6-3.8c-0.1-0.7-0.2-1.4-0.3-2c-0.1-0.6-0.1-1.3-0.4-1.8c-0.3-0.8-1.7-0.7-2.4-0.9
			c-1.2-0.2-2.4-0.4-3.7-0.4c-2.6-0.2-5.1,0-7.7,0.3C162,62.7,162.2,63.3,162.6,63.2z" class="colore8e8e8 svgShape"></path><path fill="#e8e8e8" d="M155.3,87.1c0.3,1,0.6,1.9,0.6,3c0,0.5-0.1,1.1,0.3,1.5c0.4,0.4,1,0.4,1.5,0.5c0.8,0.1,1.6,0.2,2.5,0.3
			c3.8,0.2,7.6-0.3,11.3-0.8c0.4,0,0.4-0.6,0-0.6c-3.2,0.4-6.4,0.9-9.6,0.8c-0.7,0-1.5,0-2.2-0.1c-0.5,0-0.9-0.1-1.4-0.2
			c-0.3,0-1,0-1.3-0.2c-0.7-0.5-0.4-1.6-0.6-2.3c-0.1-0.7-0.3-1.4-0.5-2.1C155.7,86.6,155.1,86.7,155.3,87.1z" class="colore8e8e8 svgShape"></path><path fill="#e8e8e8" d="M170.5,79.7c0.4,1.9,0.5,3.8,0.6,5.7c0.1,1.8,0.2,3.7,0.3,5.5c0.2,3.7,0.3,7.4,0.3,11.2c0,0.4,0.6,0.4,0.6,0
			c0-3.9-0.2-7.7-0.3-11.5c-0.2-3.6-0.1-7.4-0.9-10.9C171,79.2,170.5,79.4,170.5,79.7z" class="colore8e8e8 svgShape"></path><path fill="#e8e8e8" d="M170.9,80.1c4.1-0.2,8.1-0.2,12.1,0.2c0.4,0,0.4-0.5,0-0.6c-4-0.3-8.1-0.4-12.1-0.2
			C170.5,79.5,170.5,80.1,170.9,80.1z M171.6,102.2c0.5,0.8,1.3,1.1,2.2,1.3c1.4,0.2,2.8,0.2,4.2,0.3c3,0.2,6,0.3,9,0.4
			c1.5,0,2.9,0,4.4-0.1c0.7,0,1.4-0.1,2.1-0.1c0.4,0,1,0,1.3-0.2c0.2-0.2,0.2-0.4,0.3-0.7c0.1-0.8,0.1-1.5,0.1-2.3
			c0.1-1.5,0.1-3.1,0.2-4.6c0-0.4-0.6-0.4-0.6,0c0,1.2-0.1,2.4-0.1,3.6c0,0.6,0,1.1-0.1,1.7c0,0.3,0,0.6,0,0.9
			c0,0.5-0.1,0.7-0.7,0.9c-0.5,0.1-1.2,0.1-1.7,0.1c-0.6,0-1.3,0.1-1.9,0.1c-1.2,0-2.4,0-3.6,0c-2.3,0-4.7-0.1-7.1-0.3
			c-1.2-0.1-2.4-0.2-3.6-0.3c-1.2-0.1-3.1,0.1-3.8-1.1C171.9,101.6,171.4,101.9,171.6,102.2z" class="colore8e8e8 svgShape"></path><path fill="#e8e8e8" d="M181.7,71.5c1.1,3.7,1.3,7.3,1.5,11.1c0.2,3.9,0.4,7.7,0.6,11.6c0,0.4,0.6,0.4,0.6,0c-0.2-4-0.4-8-0.6-12
			c-0.2-3.7-0.4-7.3-1.5-10.9C182.2,71,181.6,71.2,181.7,71.5z" class="colore8e8e8 svgShape"></path><path fill="#e8e8e8" d="M183.9,94.7c2.3,0.8,4.7,0.9,7,1.1c2.5,0.2,4.8,0.5,7.3,0.1s4.9-0.9,7.3-1.5c2.2-0.5,4.3-1.3,6.1-2.7
			c0.3-0.2-0.1-0.6-0.4-0.4c-1.8,1.5-4.1,2.2-6.3,2.7c-2.3,0.5-4.5,1-6.8,1.3c-2.4,0.4-4.7,0.1-7.1-0.1c-2.3-0.2-4.7-0.3-6.9-1.1
			C183.7,94,183.6,94.6,183.9,94.7z M182,71.5c4.2-1.2,8.5-1.3,12.8-1.5c4.4-0.2,8.7-0.4,13,0c0.4,0,0.4-0.6,0-0.6
			c-4.5-0.3-8.9-0.2-13.4,0.1c-4.2,0.2-8.5,0.3-12.6,1.5C181.5,71.1,181.6,71.6,182,71.5z" class="colore8e8e8 svgShape"></path><path fill="#e8e8e8" d="M207.6,69.7c0.1,3.7,0.5,7.3,1.2,11c0.3,1.8,0.7,3.7,1.1,5.5c0.4,1.8,0.7,3.6,1.3,5.3
			c0.1,0.3,0.7,0.2,0.6-0.2c-1.2-3.3-1.7-7-2.4-10.5c-0.7-3.7-1.2-7.4-1.3-11.2C208.1,69.3,207.5,69.3,207.6,69.7z" class="colore8e8e8 svgShape"></path><path fill="#cce0ff" d="M140.2,62.5c0.1,1,0.2,2.1,0.3,3.1c0,0.4,0.6,0.4,0.6,0c-0.1-1-0.2-2.1-0.3-3.1
			C140.8,62.1,140.2,62.1,140.2,62.5z" class="colorcce0ff svgShape"></path><path fill="#cce0ff" d="M140.8,64.5c0.6-0.2,1.2-0.3,1.7-0.3c0.4,0,0.4-0.6,0-0.6c-0.6,0.1-1.3,0.2-1.9,0.4
			C140.3,64,140.4,64.6,140.8,64.5z" class="colorcce0ff svgShape"></path><path fill="#cce0ff" d="M142.4,61.9c0,0.7,0,1.3,0,2c0,0.5-0.1,1.1,0.1,1.6c0.1,0.3,0.7,0.2,0.6-0.2c-0.2-0.5-0.1-1.1-0.1-1.7
			c0-0.6,0-1.1,0-1.7C142.9,61.5,142.4,61.5,142.4,61.9z M144.2,62.1c0.8,0.1,1.5-0.4,2.2-0.1c0.3,0.1,0.5-0.4,0.2-0.6
			c-0.8-0.2-1.5,0.3-2.2,0.1C144,61.5,143.8,62.1,144.2,62.1z" class="colorcce0ff svgShape"></path><path fill="#cce0ff" d="M145.2,62c0.2,1,0.3,2,0.3,3.1c0,0.4,0.6,0.4,0.6,0c0-1.1-0.1-2.1-0.3-3.2C145.7,61.5,145.1,61.7,145.2,62z
			 M147.9,61.4c-0.1,1.4-0.1,2.7,0,4.1c0,0.4,0.6,0.4,0.6,0c0-1.4,0-2.7,0-4.1C148.5,61,147.9,61,147.9,61.4z" class="colorcce0ff svgShape"></path><path fill="#cce0ff" d="M147.9,61.4c0.4,1,1.4,1.6,1.7,2.6c0.1,0.2,0.4,0.3,0.5,0.1c0.5-1,1-2,1.4-3c-0.2,0-0.3,0-0.5-0.1
			c0.3,1.5,0.6,3.1,0.9,4.6c0.1,0.4,0.6,0.2,0.6-0.2c-0.3-1.5-0.6-3.1-0.9-4.6c0-0.2-0.4-0.3-0.5-0.1c-0.5,1-0.9,2-1.4,3
			c0.2,0,0.3,0,0.5,0.1c-0.3-1.1-1.3-1.7-1.8-2.8C148.3,60.8,147.8,61.1,147.9,61.4z M153.7,60.5c0.3,1.6,0.4,3.2,0.3,4.9
			c0,0.2,0.1,0.3,0.3,0.3c1,0,2-0.2,3-0.5c0.3-0.1,0.2-0.7-0.2-0.6c-0.9,0.3-1.8,0.5-2.8,0.5c0.1,0.1,0.2,0.2,0.3,0.3
			c0.1-1.7,0-3.4-0.3-5C154.2,60,153.7,60.2,153.7,60.5z" class="colorcce0ff svgShape"></path><path fill="#e8e8e8" d="M140.5,69.5c3.7-0.3,7.4-0.4,11.1-0.4c0.4,0,0.4-0.6,0-0.6c-3.7,0-7.4,0.1-11.1,0.4
			C140.1,68.9,140.1,69.5,140.5,69.5z M140.6,72c0.8,0,1.7,0.1,2.5,0c0.8,0,1.5-0.2,2.3-0.1c0.4,0,0.4-0.5,0-0.6
			c-0.8-0.1-1.5,0.1-2.3,0.1c-0.8,0-1.7,0-2.5,0C140.2,71.4,140.2,71.9,140.6,72z M140.6,73.6c1.4,0.1,2.8-0.2,4.1,0
			c0.4,0.1,0.5-0.5,0.2-0.6c-1.4-0.2-2.9,0.1-4.3,0C140.2,73,140.2,73.6,140.6,73.6z M140.9,77.3c1.3,0,2.5,0,3.8,0
			c0.4,0,0.4-0.6,0-0.6c-1.3,0-2.5,0-3.8,0C140.5,76.7,140.5,77.3,140.9,77.3z M141.2,78.7c0.9,0,1.8,0,2.8,0c0.4,0,0.4-0.6,0-0.6
			c-0.9,0-1.8,0-2.8,0C140.8,78.1,140.8,78.7,141.2,78.7z M140.6,80.8c1.3,0,2.6,0,3.9,0c0.4,0,0.4-0.6,0-0.6c-1.3,0-2.6,0-3.9,0
			C140.2,80.2,140.2,80.8,140.6,80.8z M150.6,71.4c2.7,0,5.5,0,8.2,0c0.4,0,0.4-0.6,0-0.6c-2.7,0-5.5,0-8.2,0
			C150.2,70.8,150.2,71.4,150.6,71.4z M150.8,73.7c1.8,0,3.6,0,5.3,0c0.4,0,0.4-0.6,0-0.6c-1.8,0-3.6,0-5.3,0
			C150.4,73.1,150.4,73.7,150.8,73.7z M158.1,73.6c0.5,0,1.1,0,1.6,0c0.4,0,0.4-0.6,0-0.6c-0.5,0-1.1,0-1.6,0
			C157.7,73,157.7,73.6,158.1,73.6z M151.4,77.3c2.1,0,4.3,0,6.4,0c0.4,0,0.4-0.6,0-0.6c-2.1,0-4.3,0-6.4,0
			C151,76.8,151,77.3,151.4,77.3z M149.1,80c1.9,0,3.7,0,5.6,0c0.4,0,0.4-0.6,0-0.6c-1.9,0-3.7,0-5.6,0
			C148.7,79.4,148.7,80,149.1,80z M151.4,81.4c1.4,0,2.8,0,4.3,0c0.4,0,0.4-0.6,0-0.6c-1.4,0-2.8,0-4.3,0
			C151,80.8,151,81.4,151.4,81.4z M156.8,79.9c1.4,0,2.7,0,4.1,0c0.4,0,0.4-0.6,0-0.6c-1.4,0-2.7,0-4.1,0
			C156.4,79.3,156.4,79.9,156.8,79.9z M163.5,66.1c1.2,0,2.5,0,3.7,0c0.4,0,0.4-0.6,0-0.6c-1.2,0-2.5,0-3.7,0
			C163.1,65.5,163.1,66.1,163.5,66.1z M168.4,65c1,0.4,2.1,0.4,3,0.9c0-0.2,0-0.3,0-0.5c-0.7,0.5-1.4,1-2,1.5
			c-0.3,0.2,0,0.7,0.3,0.5c0.7-0.5,1.4-1,2-1.5c0.2-0.1,0.2-0.4,0-0.5c-1-0.5-2.1-0.5-3.1-0.9C168.2,64.3,168,64.8,168.4,65z
			 M164.1,68.6c0.4,0.1,0.9,0.2,1.4,0.3c0.1,0,1.2,0.1,1.2,0.2c-0.1-0.1-1.6,1.2-1.7,1.4c-0.3,0.3,0.2,0.7,0.4,0.4
			c0.5-0.5,1-0.9,1.6-1.2c0.3-0.2,0.6-0.4,0.4-0.8c-0.2-0.3-0.7-0.3-1-0.3c-0.7-0.1-1.4-0.3-2.1-0.4C163.9,68,163.7,68.5,164.1,68.6
			z M164,73.6c2,0,4,0,6,0c0.4,0,0.4-0.6,0-0.6c-2,0-4,0-6,0C163.6,73,163.6,73.6,164,73.6z M170,71.7c0.4,0.2,0.8,0.3,1.3,0.5
			c0.5,0.1,1.3,0.3,1.6,0.7c0-0.1,0-0.2,0-0.3c-0.2,0.3-0.6,0.6-0.9,0.9c-0.3,0.3-0.6,0.6-0.8,0.8c-0.2,0.2,0.1,0.6,0.3,0.5
			c0,0,0.1-0.1,0.1-0.1c0.3-0.2,0-0.7-0.3-0.5c0,0-0.1,0.1-0.1,0.1c0.1,0.2,0.2,0.3,0.3,0.5c0.3-0.3,0.7-0.7,1-1
			c0.3-0.3,0.6-0.5,0.8-0.8c0.1-0.1,0.1-0.2,0-0.3c-0.6-0.9-2.1-0.9-3-1.4C170,71,169.7,71.5,170,71.7z M163.9,76.9
			c1.4,0,2.8,0,4.2,0c0.4,0,0.4-0.6,0-0.6c-1.4,0-2.8,0-4.2,0C163.5,76.3,163.5,76.9,163.9,76.9z M170.5,76.7c1.5,0,3,0,4.5,0
			c0.4,0,0.4-0.6,0-0.6c-1.5,0-3,0-4.5,0C170.1,76.2,170.1,76.7,170.5,76.7z M164.4,80.7c1.5,0,3.1,0,4.6,0c0.4,0,0.4-0.6,0-0.6
			c-1.5,0-3.1,0-4.6,0C164.1,80.1,164.1,80.7,164.4,80.7z M158.1,87.9c2.4,0,4.8,0,7.1,0c0.4,0,0.4-0.6,0-0.6c-2.4,0-4.8,0-7.1,0
			C157.7,87.3,157.7,87.9,158.1,87.9z M160.8,90c2.1,0,4.3,0,6.4,0c0.4,0,0.4-0.6,0-0.6c-2.1,0-4.3,0-6.4,0
			C160.4,89.4,160.4,90,160.8,90z M179.3,83.1c-1-1.1-2.3,1.4-2.5,2.2c-0.2,1,0.1,2,0.3,3c0.2,0.8,0.4,1.5,0.1,2.3
			c-0.3,0.7-0.8,1.3-1.5,1.6c-0.3,0.1-0.1,0.6,0.2,0.5c2.3-0.2,1.7,4.2,2.3,5.7c0.6,1.4,1.9,2,3.3,1.8c0.4-0.1,0.2-0.6-0.2-0.6
			c-3,0.5-2.9-2.9-3.1-4.8c-0.2-1.2-0.9-2.8-2.3-2.6c0.1,0.2,0.1,0.4,0.2,0.5c1.2-0.5,2.1-2.1,1.9-3.4c-0.2-1.1-0.6-2.1-0.7-3.1
			c0-0.4,0-0.9,0.2-1.3c0.1-0.1,1-1.7,1.3-1.3C179.2,83.8,179.6,83.4,179.3,83.1z M188.6,95.3c-0.5,0.5-0.3,1.1-0.1,1.8
			c0.2,0.5,0.8,1.1,0.8,1.7c0,1.1-1.2,1.5-2.1,1.9c-0.3,0.1-0.2,0.7,0.2,0.6c1-0.4,2.1-0.8,2.4-1.9c0.1-0.4,0.1-0.8-0.1-1.2
			c-0.2-0.6-1.4-1.7-0.7-2.4C189.2,95.5,188.8,95.1,188.6,95.3z" class="colore8e8e8 svgShape"></path><path fill="#0ab9ff" d="M191.8,79.2c-3-1.2-5.9,1.3-5.4,4.4c0.4,3.1,4.1,3.8,5.8,1.3c0.2-0.3-0.3-0.6-0.5-0.3c-0.7,1-1.9,1.6-3.1,1.1
			c-1.2-0.4-1.7-1.6-1.7-2.8c0-2.5,2.4-4.1,4.8-3.2C192,79.9,192.1,79.3,191.8,79.2z M195.7,81.9c1-0.1,2.1-0.3,3.2-0.2
			c0.4,0,0.4-0.6,0-0.6c-1.1,0-2.2,0.1-3.2,0.2C195.4,81.3,195.4,81.9,195.7,81.9z" class="color06f svgShape"></path><path fill="#0ab9ff" d="M197,79.6c0.1,1.3,0.2,2.7,0.2,4c0,0.4,0.6,0.4,0.6,0c0-1.3,0-2.7-0.2-4C197.6,79.2,197,79.2,197,79.6z
			 M201,80.8c1,0.1,2,0.1,2.9,0.1c0.4,0,0.4-0.6,0-0.6c-0.9,0-1.9,0.1-2.8,0C200.8,80.2,200.6,80.8,201,80.8z" class="color06f svgShape"></path><path fill="#0ab9ff" d="M202.3,78.6c0.1,1.5,0.1,3,0.2,4.6c0,0.4,0.6,0.4,0.6,0c-0.1-1.5-0.1-3-0.2-4.6
			C202.9,78.2,202.3,78.2,202.3,78.6z" class="color06f svgShape"></path><path fill="#e8e8e8" d="M225.6,101c-0.9,8.3-0.3,16.8,1.9,24.9c0.1,0.4,0.7,0.2,0.6-0.2c-2.2-8.1-2.8-16.4-1.9-24.7
			C226.3,100.6,225.7,100.6,225.6,101z" class="colore8e8e8 svgShape"></path><path fill="#e8e8e8" d="M226.2,101.1c5.1,0.3,10.5,1.1,15.5-0.2c0.4-0.1,0.2-0.7-0.2-0.6c-5,1.3-10.3,0.5-15.4,0.1
			C225.8,100.5,225.8,101.1,226.2,101.1z" class="colore8e8e8 svgShape"></path><path fill="#e8e8e8" d="M241.3,100.7c-0.6,7.4,1.2,14.9,5.2,21.1c0.2,0.3,0.7,0,0.5-0.3c-3.9-6.2-5.7-13.5-5.1-20.8
			C241.9,100.3,241.3,100.3,241.3,100.7z" class="colore8e8e8 svgShape"></path><path fill="#e8e8e8" d="M228,126c3,1.1,6.6,0.5,9.6-0.1c3.2-0.7,6.3-2.1,9.1-3.9c0.3-0.2,0-0.7-0.3-0.5c-2.6,1.7-5.5,3-8.6,3.7
			c-3,0.7-6.7,1.3-9.7,0.2C227.8,125.3,227.6,125.9,228,126z M229.6,104.3c-1.1,0.7-2,1.5-2.9,2.5c-0.2,0.2-0.1,0.5,0.2,0.5
			c1.4,0,2.9-0.1,4.3-0.1c0.4,0,0.4-0.6,0-0.6c-1.4,0-2.9,0.1-4.3,0.1c0.1,0.2,0.1,0.3,0.2,0.5c0.9-0.9,1.8-1.7,2.8-2.4
			C230.2,104.6,229.9,104.1,229.6,104.3z M232.3,105.1c1.5-0.1,3-0.1,4.5,0.1c0.4,0,0.4-0.5,0-0.6c-1.5-0.2-3-0.2-4.5-0.1
			C232,104.5,232,105.1,232.3,105.1z" class="colore8e8e8 svgShape"></path><path fill="#e8e8e8" d="M237,104.2c0.9,0.2,1.8,0.5,2.8,0.8c0-0.2-0.1-0.3-0.1-0.5c-0.6,0.5-1.2,1-1.8,1.5c-0.3,0.3,0.1,0.7,0.4,0.4
			c0.6-0.5,1.2-1,1.8-1.5c0.2-0.2,0.1-0.4-0.1-0.5c-0.9-0.3-1.8-0.6-2.8-0.8C236.8,103.5,236.7,104.1,237,104.2z M227,110.8
			c0.9,0.1,1.7,0.1,2.5,0.2c0.4,0,0.4-0.6,0-0.6c-0.9-0.1-1.7-0.1-2.5-0.2C226.6,110.2,226.6,110.8,227,110.8z M231.3,110.8
			c2.4-0.4,4.8-0.7,7.1-1.1c0.4-0.1,0.2-0.6-0.2-0.6c-2.4,0.4-4.8,0.7-7.1,1.1C230.8,110.3,230.9,110.9,231.3,110.8z M227.4,112.7
			c0.6,0,1.2,0,1.8,0c0.4,0,0.4-0.6,0-0.6c-0.6,0-1.2,0-1.8,0C227.1,112.1,227.1,112.7,227.4,112.7z M227.6,114.1
			c0.7,0.1,1.4,0,2-0.2c0.4-0.1,0.2-0.6-0.2-0.6c-0.6,0.1-1.2,0.2-1.9,0.1C227.2,113.5,227.2,114.1,227.6,114.1z M227.3,116.7
			c2.6-0.3,5.4-0.3,7.9-1.1c0.3-0.1,0.2-0.7-0.2-0.6c-2.4,0.8-5.2,0.8-7.7,1.1C227,116.1,227,116.7,227.3,116.7z M232.1,113.4
			c2.7-0.3,5.3-0.8,7.9-1.4c0.4-0.1,0.2-0.7-0.2-0.6c-2.6,0.6-5.2,1.1-7.8,1.4C231.7,112.9,231.7,113.5,232.1,113.4z M228,119
			c0.6,0.1,1.2,0,1.8-0.1c0.4-0.1,0.2-0.7-0.2-0.6c-0.5,0.1-1.1,0.2-1.6,0.1C227.6,118.4,227.6,119,228,119z M232.3,118.4
			c0.9,0.1,1.7-0.2,2.6-0.3c1-0.2,2.1-0.5,3.1-0.7c0.4-0.1,0.2-0.6-0.2-0.6c-0.9,0.2-1.8,0.4-2.8,0.6c-0.9,0.2-1.8,0.5-2.8,0.4
			C231.9,117.8,231.9,118.4,232.3,118.4z M231.1,119.5c-0.5,0.1-0.9,0.5-1,1c0,0.2,0,0.4,0,0.6c0.1,0.2,0.9,1.2,0.4,1.3
			c-0.2,0-0.3,0.3-0.2,0.4c0.5,0.6,0.4,1.6,1.1,2.1c0.4,0.3,0.9,0.3,1.3,0c0.3-0.3-0.1-0.7-0.4-0.4c-0.7,0.7-1.3-1.5-1.5-1.9
			c-0.1,0.1-0.1,0.3-0.2,0.4c0.3-0.1,0.5-0.3,0.6-0.7c0.1-0.6-1.3-1.9-0.1-2.2C231.6,119.9,231.5,119.4,231.1,119.5z M232.6,122
			c1.7-0.1,3.5-0.2,5.2-0.4c0.4,0,0.4-0.6,0-0.6c-1.7,0.2-3.5,0.3-5.2,0.4C232.2,121.4,232.2,122,232.6,122z M238.9,118.9
			c0.2,0,0.4,0,0.6,0c0.8,0.2,0.5,0.4,0.5,0.9c0,0.3,0,0.6,0.1,0.9c0.1,0.3,0.3,0.7,0.4,1c0.2,0.5,0.2,0.6-0.2,1
			c-0.3,0.4-0.3,0.4-0.8,0.5c-0.4,0.1-0.2,0.6,0.2,0.6c0.6-0.1,1.2-0.3,1.4-0.9c0.3-0.7,0-1.3-0.3-1.9c-0.2-0.5-0.3-0.9-0.3-1.4
			c0-0.3,0-0.6-0.1-0.8c-0.3-0.7-1-0.4-1.6-0.5C238.6,118.3,238.6,118.9,238.9,118.9z" class="colore8e8e8 svgShape"></path><path fill="#ffffff" d="M63.8 163.7c0 24.6 0 49.2 0 73.8 1.7-.2 3.4-.3 5.1-.5 0-24.6 0-49.2 0-73.8C67.2 163.3 65.5 163.5 63.8 163.7zM211.2 164.4c0 24.1-.1 48.3-.1 72.4 1.6 0 3.3 0 5 0 0-24.4 0-48.7 0-73.1C214.5 164 212.9 164.2 211.2 164.4zM88.9 212.9c-.2-10.4-.3-21-.1-31.9.1-7 .2-13.9.4-20.7-2.1 0-4.1-.1-6.2-.1 0 17.5-.1 34.9-.1 52.4C84.9 212.7 86.9 212.8 88.9 212.9zM191.5 161.4c0 17.1.1 34.2.1 51.2 1.8 0 3.7-.1 5.5-.1.1-17.3.3-34.7.4-52C195.5 160.7 193.5 161.1 191.5 161.4z" class="colorfff svgShape"></path><path fill="#ffffff" d="M55.5,162.2c0,1.4-0.1,2.9-0.1,4.3c55.6,0.1,111.2,0.2,166.8,0.3c-0.1-1.5-0.3-3-0.4-4.6
			c-18-0.8-36.4-1.3-55.2-1.6C128,160,90.9,160.6,55.5,162.2z" class="colorfff svgShape"></path><path fill="#ffffff" d="M55.5,162c55.4,0,110.8,0.1,166.3,0.1c-5.9-5.6-11.8-11.2-17.7-16.8c-44.7,0-89.5,0.1-134.2,0.1
			C65,151,60.2,156.5,55.5,162z" class="colorfff svgShape"></path><path fill="#161616" d="M55.5,162.4c4.8-5.7,9.7-11.3,14.8-16.8c0.3-0.3-0.2-0.7-0.4-0.4c-5.1,5.5-10,11-14.8,16.8
			C54.8,162.3,55.2,162.7,55.5,162.4z" class="color161616 svgShape"></path><path fill="#161616" d="M55,162.4c0,1.2,0,2.4,0,3.6c0,0.4,0.6,0.4,0.6,0c0-1.2,0-2.4,0-3.6C55.5,162,55,162,55,162.4z M55.7,166.8
			c21.7,0,43.4,0,65.1,0c21.6,0,43.1,0,64.7,0c12.1,0,24.3,0,36.4,0c0.4,0,0.4-0.6,0-0.6c-21.7,0-43.4,0-65.1,0
			c-21.6,0-43.1,0-64.7,0c-12.1,0-24.3,0-36.4,0C55.3,166.2,55.3,166.8,55.7,166.8z" class="color161616 svgShape"></path><path fill="#161616" d="M222.4,166.3c0-1.5,0-2.9,0-4.3c0-0.4-0.6-0.4-0.6,0c0,1.5,0,2.9,0,4.3C221.9,166.7,222.4,166.7,222.4,166.3z
			 M55.2,166.8c0.4,0,0.4-0.6,0-0.6C54.9,166.2,54.9,166.8,55.2,166.8z" class="color161616 svgShape"></path><path fill="#161616" d="M55.5,162.5c21.7,0,43.4,0,65.1,0c21.6,0,43.1,0,64.7,0c12.1,0,24.3,0,36.4,0c0.4,0,0.4-0.6,0-0.6
			c-21.7,0-43.4,0-65.1,0c-21.6,0-43.1,0-64.7,0c-12.1,0-24.3,0-36.4,0C55.1,161.9,55.1,162.5,55.5,162.5z M70.4,145.9
			c17.4,0,34.9,0,52.3,0c17.3,0,34.6,0,51.9,0c9.8,0,19.6,0,29.4,0c0.4,0,0.4-0.6,0-0.6c-17.4,0-34.9,0-52.3,0
			c-17.3,0-34.6,0-51.9,0c-9.8,0-19.6,0-29.4,0C70.1,145.3,70.1,145.9,70.4,145.9z" class="color161616 svgShape"></path><path fill="#161616" d="M203.7,145.9c5.9,5.4,11.8,10.9,17.6,16.3c0.3,0.3,0.7-0.2,0.4-0.4c-5.9-5.4-11.8-10.9-17.6-16.3
			C203.9,145.2,203.5,145.6,203.7,145.9z M63.6,166.5c0,18.3,0,36.6,0,55c0,5.2,0,10.4,0,15.6c0,0.4,0.6,0.4,0.6,0
			c0-18.3,0-36.6,0-55c0-5.2,0-10.4,0-15.6C64.2,166.1,63.6,166.1,63.6,166.5z M68.7,166.8c0,18.2,0,36.4,0,54.6
			c0,5.2,0,10.3,0,15.5c0,0.4,0.6,0.4,0.6,0c0-18.2,0-36.4,0-54.6c0-5.2,0-10.3,0-15.5C69.3,166.4,68.7,166.4,68.7,166.8z" class="color161616 svgShape"></path><path fill="#161616" d="M63.9,237.7c1.5-0.1,3-0.2,4.6-0.3c0.4,0,0.4-0.6,0-0.6c-1.5,0.1-3,0.2-4.6,0.3
			C63.6,237.1,63.5,237.7,63.9,237.7z M210.8,166.5c0,18.3,0,36.6,0,55c0,5.2,0,10.4,0,15.6c0,0.4,0.6,0.4,0.6,0c0-18.3,0-36.6,0-55
			c0-5.2,0-10.4,0-15.6C211.3,166.1,210.8,166.1,210.8,166.5z M215.8,166.8c0,18.2,0,36.4,0,54.6c0,5.2,0,10.3,0,15.5
			c0,0.4,0.6,0.4,0.6,0c0-18.2,0-36.4,0-54.6c0-5.2,0-10.3,0-15.5C216.4,166.4,215.8,166.4,215.8,166.8z" class="color161616 svgShape"></path><path fill="#161616" d="M211.3,237.3c1.5-0.1,3-0.2,4.6-0.3c0.4,0,0.4-0.6,0-0.6c-1.5,0.1-3,0.2-4.6,0.3
			C210.9,236.7,210.9,237.3,211.3,237.3z M82.8,166.8c0,15.2,0,30.4,0,45.6c0,0.4,0.6,0.4,0.6,0c0-15.2,0-30.4,0-45.6
			C83.3,166.4,82.8,166.4,82.8,166.8z M88.6,167.1c0,15.1,0,30.2,0,45.3c0,0.4,0.6,0.4,0.6,0c0-15.1,0-30.2,0-45.3
			C89.1,166.7,88.6,166.7,88.6,167.1z" class="color161616 svgShape"></path><path fill="#161616" d="M83.3,212.9c1.8,0,3.7,0,5.5,0c0.4,0,0.4-0.6,0-0.6c-1.8,0-3.7,0-5.5,0C82.9,212.4,82.9,212.9,83.3,212.9z
			 M191.5,166.5c0,15.3,0,30.6,0,45.8c0,0.4,0.6,0.4,0.6,0c0-15.3,0-30.6,0-45.8C192.1,166.2,191.5,166.2,191.5,166.5z M197,167.1
			c0,15.1,0,30.2,0,45.3c0,0.4,0.6,0.4,0.6,0c0-15.1,0-30.2,0-45.3C197.6,166.7,197,166.7,197,167.1z" class="color161616 svgShape"></path><path fill="#161616" d="M192.1,212.9c1.8,0,3.5,0,5.3,0c0.4,0,0.4-0.6,0-0.6c-1.8,0-3.5,0-5.3,0C191.7,212.4,191.7,212.9,192.1,212.9
			z" class="color161616 svgShape"></path><path fill="#ffffff" d="M172.2,142.2c-0.3,0.4-0.4,0.9-0.4,1.3c-0.4,3.1-0.3,5.4-0.3,5.4c0.1,1.2,0.2,2.9,0.2,5.1
			c0.8,0.9,1.6,1.2,2.1,1.4c1.5,0.5,2.8,0.2,5.5-0.5c1.1-0.3,1.9-0.5,2.5-0.7c0.4-0.8,0.6-1.5,0.6-1.9c0.1-0.9-0.2-1.4,0.1-1.9
			c0.3-0.5,0.9-0.4,1.1-0.9c0.1-0.3,0.1-0.8-0.1-0.9c-0.4-0.3-1,0.4-1.4,0.1c-0.1-0.1-0.1-0.2-0.1-0.9c-0.1-1-0.1-1.1,0-1.2
			c0.1-0.1,0.4-0.1,1-0.1c0.5,0,0.7,0,0.8,0.1c0.4,0.3,0.2,1.2-0.1,1.9c-0.4,0.9-1.1,1.1-1,1.3c0.1,0.2,1,0,1.6-0.4
			c0.4-0.3,1-0.6,1.1-1.3c0.2-1-0.7-1.8-0.8-2c-1.1-1.1-2.8-0.7-3-0.7c0-0.9,0-1.9,0.1-2.8c-2.5-1.1-4.6-1.4-5.9-1.4
			C173.2,141.2,172.5,141.9,172.2,142.2z" class="colorfff svgShape"></path><path fill="#161616" d="M171.4,143.1c-0.3,3.6-0.3,7.1-0.1,10.7c0,0.4,0.6,0.4,0.6,0c-0.2-3.6-0.2-7.1,0.1-10.7
			C172,142.7,171.4,142.7,171.4,143.1z" class="color161616 svgShape"></path><path fill="#161616" d="M171.3,153.9c2.6,2.9,6.7,2,9.8,0.8c0.3-0.1,0.2-0.7-0.2-0.6c-3,1.1-6.8,2.1-9.2-0.6
			C171.5,153.3,171.1,153.7,171.3,153.9z M171.9,143.1c0.8-1.4,3.3-1.5,4.7-1.5c1.7,0,3.3,0.5,4.7,1.3c0.3,0.2,0.6-0.3,0.3-0.5
			c-1.7-0.9-3.7-1.4-5.7-1.4c-1.5,0.1-3.8,0.3-4.6,1.8C171.3,143.1,171.8,143.4,171.9,143.1z" class="color161616 svgShape"></path><path fill="#161616" d="M181.4,143c0,0.9,0,1.7,0,2.6c0,0.2,0.2,0.3,0.4,0.3c1-0.2,2.5,0,3.1,0.9c1.1,1.8-1,2.2-2.2,2.9
			c-0.5,0.3-0.6,0.6-0.6,1.2c0,1.3,0,2.7-1.3,3.4c-0.3,0.2,0,0.7,0.3,0.5c1.1-0.6,1.5-1.7,1.6-2.9c0-0.5-0.2-1.2,0.3-1.6
			c0.2-0.2,0.6-0.3,0.9-0.4c0.6-0.3,1.1-0.6,1.5-1.1c0.7-1,0.3-2-0.5-2.7c-0.9-0.7-2.1-0.9-3.2-0.7c0.1,0.1,0.3,0.2,0.4,0.3
			c0-0.9,0-1.7,0-2.6C182,142.6,181.4,142.6,181.4,143z" class="color161616 svgShape"></path><path fill="#161616" d="M181.9,146.6c-0.1,0.7,0,1.4,0.1,2.1c0.1,0.4,0.6,0.2,0.6-0.2c-0.1-0.7-0.2-1.3-0.1-2
			C182.5,146.2,181.9,146.2,181.9,146.6z" class="color161616 svgShape"></path><path fill="#161616" d="M182.3,147.2c0.3-0.3,0.7-0.4,1.1-0.3c0.4,0.1,0.7,0.5,0.5,0.9c-0.3,0.5-1.1,0.5-1.6,0.5
			c-0.4,0-0.4,0.6,0,0.6c0.9,0,2.4-0.3,2.2-1.5c-0.1-0.5-0.5-0.9-1-1.1c-0.6-0.2-1.2,0.1-1.7,0.5C181.6,147,182,147.4,182.3,147.2z
			 M173.6,142.2c-0.4,0.3-1,0.2-1.1,0.8c-0.1,0.5,0.4,0.9,0.8,1c1,0.2,2.2,0,3.3,0c1.2,0,2.5,0.1,3.7,0.3c0.2,0,0.3-0.2,0.3-0.3
			c0-0.3,0-0.3-0.2-0.6c-0.2-0.3-0.7,0-0.5,0.3c0,0.1,0.1,0.2,0.1,0.3c0.1-0.1,0.2-0.2,0.3-0.3c-1.5-0.2-3-0.3-4.5-0.3
			c-0.4,0-0.8,0-1.1,0c-0.3,0-0.8,0.2-1.1,0c-0.1-0.2-0.3-0.3-0.4-0.5c0.1,0,0.2,0,0.3-0.1c0.1-0.1,0.3-0.2,0.4-0.2
			C174.3,142.4,173.9,141.9,173.6,142.2z" class="color161616 svgShape"></path><path fill="#4c4c4c" d="M177.1,141.4c-0.1-0.3-1.7-0.2-3.2,0.3c-0.9,0.3-1.5,0.6-2,0.8c-0.2,2.1-0.3,4.3-0.3,6.7c0,1.6,0,3.3,0,4.8
			c0.5,0.4,1.9,1.3,3.8,1.5c1.3,0.1,2.3-0.2,2.9-0.4c-0.3-3.8-0.7-7.6-1-11.3c-1.6,0-2.8-0.2-2.8-0.5
			C174.3,142.6,177.2,141.8,177.1,141.4z" enable-background="new" opacity=".09" class="color4c4c4c svgShape"></path><path fill="#4c4c4c" d="M171.9,143.7c0.8,2.6,1.7,5.2,2.5,7.8c0.4,1.3,0.9,2.6,1.3,3.9c-0.5,0-1.4-0.1-2.4-0.5
			c-0.8-0.3-1.4-0.8-1.8-1.1c-0.1-1.7-0.2-3.6-0.1-5.7C171.6,146.6,171.8,145.1,171.9,143.7z" enable-background="new" opacity=".11" class="color4c4c4c svgShape"></path><path fill="#ffffff" d="M178.1,110.2c-0.2,0.9-0.4,2.2-0.6,3.8c-0.7,5.3-0.7,9.4-0.7,12.6c0,2.3,0.1,5.4,0.4,9
			c0.9,0.3,2.4,0.8,4.4,1.3c3.3,0.8,5.3,0.9,10.8,1.6c3.4,0.5,2.6,0.4,5.6,0.8c4.4,0.6,7.2,0.9,10.7,1c1.6,0,3.9,0,6.6-0.2
			c0.5-2.1,1-4.8,1.4-7.9c0.1-0.8,0.5-4.3,0.4-9.1c0-3.1-0.3-7-1-11.4c-0.7-0.2-1.8-0.4-3-0.7c-1.5-0.3-6.5-1.3-13.5-1.8
			c-7.3-0.5-13,0-14.8,0.1C182,109.7,179.7,110,178.1,110.2z M51.1,125c3.4,8.5,6.7,17.1,10,25.6c9.8-5.9,19.6-11.9,29.4-17.9
			c-2.8-6.9-5.6-13.9-8.5-20.8c-5,1.7-10.2,3.7-15.7,6C60.9,120.2,55.8,122.6,51.1,125z M61,150.9c3.6,2.2,7.7,4.4,12.2,6.5
			c2.8,1.3,5.5,2.5,8.1,3.5c4.5-3,9-6,13.4-9.1c4.4-3,8.8-6,13.2-9.1c-5.6-3.3-11.2-6.6-16.8-9.9C81.1,138.9,71,144.9,61,150.9z" class="colorfff svgShape"></path><path fill="#161616" d="M66.4,151.4c8.5-5.1,17.1-10.1,25.2-15.8c0.3-0.2,0-0.7-0.3-0.5c-8.1,5.8-16.7,10.7-25.2,15.8
			C65.8,151,66.1,151.6,66.4,151.4z M69.7,153.4c8.5-5.1,17.1-10.1,25.2-15.8c0.3-0.2,0-0.7-0.3-0.5c-8.1,5.8-16.7,10.7-25.2,15.8
			C69.1,153,69.3,153.5,69.7,153.4z M73.6,155.2c8.5-5.1,17.1-10.1,25.2-15.8c0.3-0.2,0-0.7-0.3-0.5c-8.1,5.8-16.7,10.7-25.1,15.8
			C73,154.9,73.3,155.4,73.6,155.2z M76.8,157.2c8.5-5.1,17.1-10.1,25.2-15.8c0.3-0.2,0-0.7-0.3-0.5c-8.1,5.8-16.7,10.7-25.2,15.8
			C76.2,156.9,76.5,157.4,76.8,157.2z" class="color161616 svgShape"></path><path fill="#161616" d="M69.1,149.5c2.1,1.4,4.3,2.7,6.4,4c0.3,0.2,0.6-0.3,0.3-0.5c-2.1-1.4-4.3-2.7-6.4-4
			C69.1,148.8,68.8,149.3,69.1,149.5z M72.4,147.6c2,1.4,4,2.8,6,4.2c0.3,0.2,0.6-0.3,0.3-0.5c-2-1.4-4-2.8-6-4.2
			C72.4,146.9,72.1,147.4,72.4,147.6z M75.6,145.6c1.9,1.4,3.8,2.8,5.7,4.3c0.3,0.2,0.7-0.2,0.4-0.4c-1.9-1.5-3.8-3-5.8-4.4
			C75.6,144.9,75.3,145.4,75.6,145.6z M78.9,143.7c1.9,1.3,3.7,2.8,5.4,4.3c0.3,0.3,0.7-0.2,0.4-0.4c-1.7-1.6-3.6-3.1-5.5-4.4
			C78.9,143,78.6,143.5,78.9,143.7z M82,142.1c1.7,1.4,3.4,3,4.9,4.6c0.3,0.3,0.7-0.1,0.4-0.4c-1.5-1.6-3.2-3.2-4.9-4.6
			C82.1,141.4,81.7,141.9,82,142.1z M84.4,140.2c1.9,1.5,3.6,3.1,5.2,4.9c0.3,0.3,0.7-0.1,0.4-0.4c-1.6-1.8-3.3-3.4-5.2-4.9
			C84.6,139.5,84.1,140,84.4,140.2z M87.5,138.1c1.9,1.5,3.7,3,5.4,4.7c0.3,0.3,0.7-0.2,0.4-0.4c-1.7-1.6-3.5-3.2-5.4-4.7
			C87.6,137.5,87.2,137.9,87.5,138.1z M90,136.7c1,0.6,1.8,1.5,2.7,2.3c0.8,0.8,1.6,1.6,2.5,2.4c0.3,0.3,0.7-0.2,0.4-0.4
			c-0.9-0.9-1.8-1.8-2.7-2.6c-0.8-0.8-1.6-1.6-2.5-2.2C90,136,89.7,136.5,90,136.7z M66,151.4c2.3,1.5,4.6,2.8,7.1,3.9
			c0.3,0.2,0.6-0.3,0.3-0.5c-2.4-1.2-4.8-2.5-7.1-3.9C66,150.7,65.7,151.2,66,151.4z M91.5,135.7c0.1,0,0.2,0,0.2,0.1
			c0.2,0,0.3,0,0.3-0.2c0-0.2,0-0.3-0.2-0.3c-0.1,0-0.2,0-0.2-0.1c-0.2,0-0.3,0-0.3,0.2C91.3,135.5,91.4,135.6,91.5,135.7z" class="color161616 svgShape"></path><path fill="#161616" d="M91.5,135.6c2.4,1.1,4.6,2.7,6.9,4c0.3,0.2,0.6-0.3,0.3-0.5c-2.4-1.2-4.5-2.9-6.9-4
			C91.4,135,91.1,135.5,91.5,135.6z M72.9,155.3c1.2,0.6,2.4,1.3,3.5,2c0.3,0.2,0.6-0.3,0.3-0.5c-1.1-0.8-2.3-1.4-3.5-2
			C72.8,154.6,72.5,155.2,72.9,155.3z M75.7,153.7c0.9,0.7,1.7,1.4,2.6,2.1c0.3,0.3,0.7-0.2,0.4-0.4c-0.8-0.8-1.7-1.5-2.7-2.2
			C75.7,153,75.4,153.5,75.7,153.7z M78.5,151.9c1,0.7,1.9,1.5,2.7,2.4c0.3,0.3,0.7-0.1,0.4-0.4c-0.9-0.9-1.8-1.7-2.8-2.5
			C78.5,151.2,78.2,151.7,78.5,151.9z M81.4,150.1c0.8,0.8,1.6,1.6,2.3,2.4c0.3,0.3,0.7-0.1,0.4-0.4c-0.8-0.8-1.5-1.6-2.3-2.4
			C81.5,149.4,81.1,149.8,81.4,150.1z M89.5,145c0.8,0.9,1.6,1.8,2.3,2.7c0.2,0.3,0.7-0.1,0.4-0.4c-0.8-0.9-1.6-1.8-2.3-2.7
			C89.6,144.3,89.2,144.7,89.5,145z M92.9,142.9c0.8,0.8,1.5,1.7,2.2,2.5c0.3,0.3,0.7-0.1,0.4-0.4c-0.7-0.9-1.5-1.7-2.2-2.5
			C93.1,142.2,92.7,142.6,92.9,142.9z M95.2,141.4c1.2,0.6,2.5,1.1,3.7,1.7c0.3,0.2,0.6-0.3,0.3-0.5c-1.2-0.6-2.5-1.1-3.7-1.7
			C95.1,140.7,94.8,141.3,95.2,141.4z" class="color161616 svgShape"></path><path fill="#161616" d="M98.4,139.4c1.1,0.7,2.2,1.3,3.3,1.9c0.3,0.2,0.6-0.3,0.3-0.5c-1.1-0.6-2.2-1.2-3.3-1.9
			C98.3,138.7,98,139.2,98.4,139.4z" class="color161616 svgShape"></path><path fill="#ffffff" d="M115.7,100c-0.2,2.1-0.4,4.4-0.5,6.7c-0.5,9.4,0.3,17.9,1.6,25.2c4.1,0,7.4-0.1,9.5-0.1
			c14.2-0.3,20.4-1.2,33.1-1.2c3.2,0,5.8,0,7.3,0.1c0.5-2,1-4.1,1.3-6.4c1.6-10.2,0.6-19.2-1-26.2c-2.6-0.5-6.5-1.1-11.3-1.4
			c-3.1-0.2-4,0-16.5,0.5c-8.9,0.4-11.3,0.5-15.5,1.2C120.3,98.9,117.6,99.5,115.7,100z" class="colorfff svgShape"></path><path fill="#161616" d="M192.2,138.6c0.1,2.6,0.1,5.3-0.1,7.9c0,0.4,0.6,0.4,0.6,0c0.2-2.6,0.3-5.2,0.1-7.9
			C192.8,138.2,192.2,138.2,192.2,138.6z M195.6,139.2c0,2.4,0,4.9,0,7.3c0,0.4,0.6,0.4,0.6,0c0-2.4,0-4.9,0-7.3
			C196.2,138.8,195.6,138.8,195.6,139.2z" class="color161616 svgShape"></path><path fill="#161616" d="M192.1,146.2c-0.6,0-3,0.4-2.5,1.5c0.2,0.5,1.1,0.5,1.5,0.6c1,0.2,2,0.2,3,0.2c1,0,1.9,0,2.9-0.1
			c0.4-0.1,1.4-0.2,1.6-0.6c0.6-1-2.1-1.5-2.6-1.6c-0.4-0.1-0.5,0.5-0.2,0.6c0.4,0.1,0.8,0.2,1.3,0.3c0.6,0.2,1.1,0.3,0.4,0.6
			c-0.8,0.3-2,0.2-2.9,0.2c-1,0-2,0-2.9-0.1c-0.4,0-1.8,0-1.1-0.7c0.3-0.3,1.1-0.3,1.5-0.3C192.5,146.8,192.5,146.3,192.1,146.2z
			 M177.2,136c4.9,1.5,9.9,2.4,14.9,2.8c0.4,0,0.4-0.5,0-0.6c-5-0.4-9.9-1.4-14.8-2.8C177,135.4,176.9,135.9,177.2,136z
			 M195.7,139.3c6.5,1.1,13.1,1.6,19.6,0.9c0.4,0,0.4-0.6,0-0.6c-6.5,0.6-13,0.3-19.4-0.9C195.5,138.6,195.3,139.2,195.7,139.3z" class="color161616 svgShape"></path><path fill="#161616" d="M177.4,135.6c-0.5-8.4-0.9-16.9,1-25.2c0.1-0.4-0.5-0.5-0.6-0.2c-1.9,8.3-1.4,16.9-1,25.3
			C176.9,135.9,177.4,135.9,177.4,135.6z" class="color161616 svgShape"></path><path fill="#161616" d="M178.1,110.6c6.2-1.3,12.8-1.1,19.1-1c6.2,0.1,12.5,0.7,18.5,2.5c0.3,0.1,0.5-0.4,0.2-0.6
			c-6-1.9-12.3-2.4-18.6-2.6c-6.4-0.1-13-0.3-19.3,1C177.6,110.1,177.8,110.6,178.1,110.6z" class="color161616 svgShape"></path><path fill="#161616" d="M215.7,111.9c1.4,9.2,1.1,18.7-0.7,27.8c-0.1,0.4,0.5,0.5,0.6,0.2c1.9-9.3,2.1-18.8,0.7-28.1
			C216.2,111.4,215.7,111.6,215.7,111.9z M50.8,125.3c3.4,8.7,6.7,17.3,10.1,26c0.1,0.3,0.7,0.2,0.6-0.2c-3.4-8.7-6.7-17.3-10.1-26
			C51.2,124.8,50.7,125,50.8,125.3z" class="color161616 svgShape"></path><path fill="#161616" d="M60.8,151.5c6.6,3.6,13.3,6.9,20.2,9.9c0.3,0.2,0.6-0.3,0.3-0.5c-6.9-3-13.6-6.3-20.2-9.9
			C60.8,150.8,60.5,151.3,60.8,151.5z" class="color161616 svgShape"></path><path fill="#161616" d="M81.4,161.4c8.8-6.1,17.7-12.2,26.5-18.3c0.3-0.2,0-0.7-0.3-0.5c-8.8,6.1-17.7,12.2-26.5,18.3
			C80.8,161.2,81.1,161.7,81.4,161.4z M51.1,125.3c10.1-5,20.5-9.4,31.1-13.1c0.3-0.1,0.2-0.7-0.2-0.6c-10.7,3.7-21.1,8.1-31.3,13.2
			C50.4,124.9,50.7,125.4,51.1,125.3z M61.3,151.1c9.8-6,19.6-12,29.4-17.9c0.3-0.2,0-0.7-0.3-0.5c-9.8,6-19.6,12-29.4,17.9
			C60.7,150.8,61,151.3,61.3,151.1z" class="color161616 svgShape"></path><path fill="#161616" d="M81.8,112.1c2.9,6.9,5.7,13.7,8.5,20.6c0.1,0.3,0.7,0.2,0.6-0.2c-2.9-6.9-5.7-13.7-8.5-20.6
			C82.2,111.6,81.7,111.7,81.8,112.1z" class="color161616 svgShape"></path><path fill="#161616" d="M90.7,133c5.7,3.3,11.4,6.5,17.1,9.8c0.3,0.2,0.6-0.3,0.3-0.5c-5.7-3.3-11.4-6.5-17.1-9.8
			C90.7,132.3,90.4,132.8,90.7,133z M115.2,100.2c-0.8,10.6,0.2,21.1,1.2,31.6c0,0.4,0.6,0.4,0.6,0c-1-10.5-2-21.1-1.2-31.6
			C115.8,99.8,115.2,99.8,115.2,100.2z" class="color161616 svgShape"></path><path fill="#161616" d="M115.7,100.4c6.2-2.2,12.8-2.4,19.3-2.8c6.7-0.4,13.5-0.9,20.2-0.7c4,0.1,7.9,0.5,11.8,1.3
			c0.4,0.1,0.5-0.5,0.2-0.6c-6.7-1.4-13.6-1.5-20.4-1.2c-6.9,0.3-13.8,0.6-20.6,1.3c-3.6,0.3-7.2,0.9-10.6,2.2
			C115.2,100,115.3,100.6,115.7,100.4z" class="color161616 svgShape"></path><path fill="#161616" d="M167,97.9c2,10.7,1.8,21.8-0.4,32.5c0.1-0.1,0.2-0.1,0.3-0.2c-13,0.4-25.9,0.8-38.8,1.3
			c-3.7,0.1-7.3,0.2-11,0.3c-0.4,0-0.4,0.6,0,0.6c13-0.4,25.9-0.8,38.8-1.3c3.7-0.1,7.3-0.2,11-0.3c0.1,0,0.3-0.1,0.3-0.2
			c2.3-10.8,2.4-21.9,0.4-32.8C167.4,97.4,166.9,97.5,167,97.9z" class="color161616 svgShape"></path><path fill="#ffffff" d="M192.5,138.6c0,1.1,0,2.2,0,3.3c0,1.5-0.1,3.1-0.1,4.6c-0.3,0-0.8-0.1-1.4,0.2c-0.1,0-1.1,0.5-1.1,0.9
			c0.1,0.7,3.6,0.8,5.5,0.7c1.1,0,3.1-0.1,3.1-0.5c0-0.3-1-0.8-2.4-1.2c-0.1-2.6-0.1-5.1-0.2-7.7
			C194.8,138.7,193.6,138.6,192.5,138.6z" class="colorfff svgShape"></path><path fill="#e8e8e8" d="M179.9,112.5c-0.8,6.4-1,12.8-0.7,19.2c0,0.4,0.6,0.4,0.6,0c-0.3-6.4-0.1-12.8,0.7-19.2
			C180.5,112.1,179.9,112.1,179.9,112.5z" class="colore8e8e8 svgShape"></path><path fill="#e8e8e8" d="M180.3,112.7c2.7-1,5.5-1.2,8.3-1.3c2.8,0,5.6,0.1,8.4,0.3c5.8,0.4,11.5,1.2,17.2,2.3
			c0.4,0.1,0.5-0.5,0.2-0.6c-5.7-1.2-11.5-2-17.3-2.3c-2.9-0.2-5.8-0.3-8.7-0.3c-2.8,0-5.5,0.3-8.1,1.3
			C179.8,112.3,180,112.8,180.3,112.7z" class="colore8e8e8 svgShape"></path><path fill="#e8e8e8" d="M214.2,113.8c0.3,7.6-0.4,15.1-1.2,22.6c0,0.4,0.5,0.4,0.6,0c0.8-7.5,1.4-15.1,1.2-22.6
			C214.7,113.4,214.1,113.4,214.2,113.8z" class="colore8e8e8 svgShape"></path><path fill="#e8e8e8" d="M179.3,132.1c2.3,1.4,5.2,1.8,7.8,2.3c3,0.7,6,1.2,9,1.6c2.9,0.4,5.7,0.7,8.6,0.9c2.8,0.2,5.8,0.5,8.6-0.1
			c0.4-0.1,0.2-0.6-0.2-0.6c-2.8,0.6-5.8,0.2-8.7,0c-2.9-0.2-5.8-0.5-8.6-0.9c-2.8-0.4-5.5-0.9-8.3-1.5c-2.6-0.6-5.6-1-8-2.4
			C179.2,131.4,178.9,131.9,179.3,132.1z M180,115.3c11.5-0.7,23,0.6,34.4,2.2c0.4,0.1,0.5-0.5,0.2-0.6c-11.4-1.6-23-2.9-34.5-2.2
			C179.6,114.8,179.6,115.4,180,115.3z M183.9,113.4c-0.1,0-0.1-0.2,0-0.3c0.2-0.1,0.3,0.1,0.3,0.3
			C184.2,113.7,183.9,113.5,183.9,113.4C183.9,113.4,184,113.3,183.9,113.4c0.1-0.1,0-0.1,0-0.1c0,0,0.1-0.1,0.1,0
			c0-0.4-0.6-0.4-0.6,0c0,0.3,0.2,0.5,0.5,0.5c0.3,0,0.5-0.3,0.5-0.6c0-0.3-0.3-0.5-0.6-0.5c-0.3,0.1-0.6,0.4-0.5,0.7
			c0.1,0.7,1.1,1,1.4,0.3c0.2-0.6-0.3-1.3-0.9-1.1c-0.3,0.1-0.6,0.3-0.6,0.7c0,0.3,0.2,0.6,0.5,0.7
			C184.1,114.1,184.3,113.5,183.9,113.4z M187,113.1C186.9,113,187,113,187,113.1C187.2,113,187.2,113.1,187,113.1
			C187,113.1,187,113.1,187,113.1C187,113.1,187,113.1,187,113.1C187,113.1,187,113,187,113.1C187,113,187,113,187,113.1
			C187,113,187,113,187,113.1C187.2,113,187,113.1,187,113.1C187,113,187,112.9,187,113.1C187,113,187.1,113,187,113.1
			c-0.1-0.1-0.3,0-0.3,0.1c0,0.2,0.1,0.3,0.2,0.3c0.3,0.1,0.5-0.1,0.7-0.3c0.1-0.2,0.1-0.5-0.2-0.7c-0.4-0.3-1,0-1,0.5
			c0.1,0.6,0.7,0.8,1.1,0.4c0.4-0.4,0.1-1.1-0.5-1.1c-0.3,0-0.6,0.2-0.7,0.5c-0.1,0.3,0.1,0.6,0.4,0.7
			C187.2,113.7,187.4,113.2,187,113.1z M192.8,120.7c-2.6,1.1-5.2,2.2-7.8,3.4c-0.3,0.1-0.1,0.5,0.1,0.5c2.2,0.8,4.3,1.7,6.3,2.9
			c0.3,0.2,0.6-0.3,0.3-0.5c-2.1-1.2-4.2-2.1-6.4-2.9c0,0.2,0,0.3,0.1,0.5c2.5-1.2,5.1-2.3,7.6-3.3
			C193.3,121.1,193.2,120.5,192.8,120.7z M200.1,119.8c-2.2,2.8-4.4,5.5-6.6,8.3c-0.2,0.3,0.2,0.7,0.4,0.4c2.2-2.8,4.4-5.5,6.6-8.3
			C200.8,120,200.4,119.5,200.1,119.8z M203,123c1.8,1.2,3.7,2.2,5.7,3.1c0-0.2,0-0.3,0-0.5c-2.1,1.2-4.2,2.4-6.3,3.5
			c-0.3,0.2,0,0.7,0.3,0.5c2.1-1.2,4.2-2.4,6.3-3.5c0.2-0.1,0.2-0.4,0-0.5c-2-0.9-3.9-1.9-5.7-3.1C203,122.3,202.7,122.8,203,123z" class="colore8e8e8 svgShape"></path><path fill="#e8e8e8" d="M203.4,135.4c2.4,0.1,4.8,0.1,7.2,0.2c0.4,0,0.4-0.6,0-0.6c-2.4-0.1-4.8-0.1-7.2-0.2
			C203,134.8,203,135.4,203.4,135.4z M52.7,125.8c3,7.1,5.8,14.3,8.4,21.5c0.1,0.3,0.7,0.2,0.6-0.2c-2.6-7.2-5.4-14.4-8.4-21.5
			C53.1,125.3,52.6,125.5,52.7,125.8z" class="colore8e8e8 svgShape"></path><path fill="#e8e8e8" d="M53.1,125.7c9.2-3.8,18.5-7.6,27.6-11.5c0.3-0.2,0-0.6-0.3-0.5c-9.1,3.9-18.3,7.7-27.5,11.4
			C52.6,125.3,52.7,125.8,53.1,125.7z" class="colore8e8e8 svgShape"></path><path fill="#e8e8e8" d="M80.6,114c2.7,5.8,5.2,11.7,7.6,17.6c0.1,0.3,0.7,0.2,0.6-0.2c-2.4-6-4.9-11.9-7.6-17.7
			C81,113.4,80.5,113.7,80.6,114z" class="colore8e8e8 svgShape"></path><path fill="#e8e8e8" d="M61.8,147.8c4.5-2.5,9-5.1,13.5-7.8c2.2-1.3,4.4-2.7,6.6-4c2.1-1.3,4.3-2.7,6.6-3.7c0.3-0.2,0-0.7-0.3-0.5
			c-2.3,1-4.4,2.4-6.6,3.7c-2.2,1.4-4.4,2.7-6.6,4c-4.4,2.7-8.9,5.3-13.5,7.8C61.2,147.5,61.5,148,61.8,147.8z" class="colore8e8e8 svgShape"></path><path fill="#0b1d52" d="M64.1,130.2c-1.3-0.8-2.6,0.6-3.3,1.5c-0.9,1.1-1.1,2.5-0.6,3.9c0.5,1.2,1.6,2.4,2.9,2.3
			c1.6-0.1,2.6-1.5,3.3-2.8c0.2-0.3-0.3-0.6-0.5-0.3c-0.5,0.9-1.1,1.9-2.1,2.3c-1.2,0.5-2.3-0.2-2.9-1.3c-0.5-0.8-0.6-1.8-0.3-2.7
			c0.3-0.9,2-3.1,3.1-2.4C64.1,130.9,64.4,130.4,64.1,130.2z M71,127c0-0.9-0.9-0.6-1.4-0.3c-0.8,0.6-1.7,1.9-1.8,2.9
			c-0.2,1.2,1.2,1,2,0.9c1-0.1,2.5,0.3,1.7,1.7c-0.5,0.9-1.6,1.3-2.6,1.3c-0.4,0-0.4,0.6,0,0.6c1.5-0.1,4.2-1.5,3.2-3.4
			c-0.4-0.8-1.4-0.9-2.2-0.9c-0.2,0-0.8,0.2-1,0.1c-0.8-0.3-0.3-0.9-0.2-1.3c0.1-0.3,0.3-0.5,0.4-0.8c0.1-0.1,1.2-1.2,1.2-1
			C70.4,127.4,71,127.4,71,127z M78.4,122.6c-1-0.4-1.8,0.4-2.4,1.1c-0.5,0.5-1.3,1.6-1,2.4c0.3,0.9,1.6,0.5,2.2,0.4
			c0.3,0,0.7-0.1,1,0c0.9,0.1,1.2,1,0.8,1.7c-0.5,0.9-1.4,1.1-2.3,1.2c-0.4,0.1-0.2,0.6,0.2,0.6c1.4-0.2,4-1.7,2.7-3.5
			c-0.6-0.9-1.8-0.7-2.7-0.6c-0.2,0-0.9,0.2-1,0.1c-0.3-0.3-0.1-1,0.1-1.3c0.4-0.7,1.3-2,2.3-1.7C78.6,123.3,78.7,122.8,78.4,122.6z
			" class="color0b1d52 svgShape"></path><path fill="#e8e8e8" d="M78.8,135.6c1.5-0.9,2.9-1.9,4.4-2.8c0.3-0.2,0-0.7-0.3-0.5c-1.5,0.9-2.9,1.9-4.4,2.8
			C78.2,135.3,78.5,135.8,78.8,135.6z M84.5,132.1c0.4-0.2,0.7-0.3,1.1-0.5c0.3-0.2,0-0.7-0.3-0.5c-0.4,0.2-0.7,0.3-1.1,0.5
			C83.8,131.8,84.1,132.3,84.5,132.1z M75.5,117.6c0,0,0-0.1,0-0.1c0,0,0,0,0,0c0,0,0.1-0.1,0.1-0.1c-0.1,0,0.1,0,0.1,0
			c0.1,0,0.1,0.1,0.1,0.1c0,0,0,0,0,0c0,0.1,0,0,0,0c0,0,0,0,0,0l0,0c0,0,0,0,0,0c0,0,0,0,0,0c0,0,0,0,0,0s0,0,0,0c0,0,0,0,0,0
			c0,0,0,0,0,0c0,0,0,0,0,0c0,0,0,0,0,0c0,0,0-0.1,0-0.1c0,0,0,0,0,0.1c0-0.1,0,0,0,0c0,0,0,0,0,0c0,0,0,0,0,0c0,0,0,0,0,0
			c0,0,0,0,0,0c0,0,0,0.1,0,0c0,0,0,0.1,0,0.1c0,0.1-0.1,0.1-0.1,0.1c0,0,0,0,0,0c0,0,0,0,0,0c0,0,0,0,0,0c0,0,0-0.1,0-0.1
			c0-0.1,0-0.1,0.1-0.1c0,0,0,0,0,0c0,0,0,0,0,0c0,0,0,0,0,0c0,0,0,0,0,0c0,0,0,0,0,0c0,0,0.1,0.1,0.1,0.1c0-0.2-0.1-0.3-0.3-0.3
			S75.4,117.4,75.5,117.6c-0.1,0.5,0.8,0.5,0.8,0c0-0.5-0.8-0.6-0.9-0.1c-0.1,0.3,0.1,0.5,0.4,0.6c0.2,0.1,0.5-0.1,0.6-0.3
			c0.1-0.2,0.1-0.5-0.1-0.7c-0.2-0.2-0.5-0.2-0.7-0.1c-0.2,0.1-0.3,0.5-0.2,0.7c0.1,0.1,0.2,0.2,0.3,0.2c0.2,0,0.3-0.2,0.3-0.3
			c0-0.2-0.1-0.3-0.3-0.3C75.7,117.3,75.5,117.4,75.5,117.6z M78.2,116.4c0.2,0,0.2,0.2,0.1,0.2c0,0-0.1,0-0.1,0c0,0,0,0,0,0
			c0,0,0,0,0,0c0,0,0,0,0,0c0,0,0,0,0,0c0,0,0,0,0,0c0,0,0,0,0,0C78.1,116.6,78.2,116.5,78.2,116.4
			C78.2,116.5,78.2,116.5,78.2,116.4C78.2,116.5,78.3,116.5,78.2,116.4c0.1,0.1,0.1,0.1,0.1,0.1c0,0,0,0,0,0c0,0,0,0,0,0l0,0
			c0-0.1,0,0.1,0,0c0,0,0,0.1,0,0.1c-0.1,0.1-0.1,0.1-0.2,0.2c0,0,0.1,0,0.1,0c0,0,0,0,0,0c0,0,0,0,0,0s0,0,0,0c0,0,0,0-0.1-0.1
			c0,0,0-0.1,0-0.1c0,0,0-0.1,0,0c0-0.1,0.1-0.1,0.2-0.1c-0.2,0-0.3,0.1-0.3,0.3c0,0.2,0.1,0.3,0.3,0.3c0.4,0,0.5-0.6,0.2-0.8
			c-0.2-0.1-0.4-0.1-0.6,0c-0.2,0.1-0.3,0.4-0.2,0.6c0.2,0.3,0.8,0.4,0.9,0c0.1-0.3-0.2-0.7-0.6-0.7c-0.3,0-0.4,0.3-0.4,0.6
			c0.1,0.3,0.3,0.4,0.6,0.3c0.2,0,0.3-0.2,0.2-0.3C78.5,116.5,78.3,116.4,78.2,116.4z M116.9,101.2c0.2,9.7,0.7,19.4,1.6,29
			c0,0.4,0.6,0.4,0.6,0c-0.9-9.7-1.4-19.3-1.6-29C117.5,100.8,116.9,100.8,116.9,101.2z" class="colore8e8e8 svgShape"></path><path fill="#e8e8e8" d="M117.6,101.5c4-0.7,8-0.8,12-1c3.9-0.2,7.8-0.3,11.7-0.4c7.9-0.3,15.7-0.5,23.6-0.7c0.4,0,0.4-0.6,0-0.6
			c-8,0.2-16,0.4-24,0.7c-4,0.1-7.9,0.3-11.9,0.5c-3.9,0.2-7.8,0.3-11.6,1C117.1,101,117.3,101.6,117.6,101.5z" class="colore8e8e8 svgShape"></path><path fill="#e8e8e8" d="M164.9,99.2c1.1,2.1,1,4.5,1.1,6.7c0.1,2.4,0.1,4.7,0.1,7.1c0,4.7-0.2,9.4-0.5,14.2c0,0.4,0.6,0.4,0.6,0
			c0.3-5,0.5-9.9,0.5-14.9c0-2.4,0-4.8-0.1-7.3c-0.1-2.1-0.1-4.2-1.1-6.1C165.2,98.6,164.7,98.8,164.9,99.2z" class="colore8e8e8 svgShape"></path><path fill="#e8e8e8" d="M118.9,130.3c15.3-2.8,31-2.5,46.4-2.7c0.4,0,0.4-0.6,0-0.6c-15.5,0.3-31.3-0.1-46.6,2.7
			C118.4,129.8,118.5,130.4,118.9,130.3z M122.8,102.8c-0.8,0.5-1.5,1.1-2.2,1.7c-0.1,0.1-0.1,0.4,0.1,0.5c0.7,0.4,1.7,0.3,2.3,1
			c0.2,0.3,0.6-0.1,0.4-0.4c-0.6-0.7-1.6-0.6-2.4-1.1c0,0.2,0,0.3,0.1,0.5c0.7-0.6,1.4-1.1,2.1-1.6
			C123.4,103.1,123.1,102.6,122.8,102.8z M126,102.5c-0.8,1.2-1.5,2.4-2,3.7c-0.2,0.3,0.3,0.6,0.5,0.3c0.6-1.3,1.2-2.5,2-3.7
			C126.7,102.5,126.2,102.2,126,102.5z M127.1,104.8c0.9-0.1,1.8-0.1,2.7-0.1c0.4,0,0.4-0.5,0-0.6c-0.9-0.1-1.8-0.1-2.7,0.1
			C126.7,104.3,126.7,104.8,127.1,104.8z M130.5,102.7c0.7,1,2,1,2.8,1.9c0-0.2,0-0.3,0.1-0.5c-0.9,0.5-1.6,1-2.3,1.7
			c-0.3,0.3,0.1,0.7,0.4,0.4c0.7-0.6,1.4-1.2,2.2-1.6c0.2-0.1,0.2-0.3,0.1-0.5c-0.8-0.8-2.1-0.9-2.7-1.8
			C130.7,102.1,130.2,102.4,130.5,102.7z M118.8,109.8c0.8-0.1,1.6-0.1,2.4-0.2c0.4,0,0.4-0.6,0-0.6c-0.8,0.1-1.6,0.1-2.4,0.2
			C118.4,109.3,118.4,109.9,118.8,109.8z M123,109.5c5.4-0.3,10.7-0.6,16.1-0.9c0.4,0,0.4-0.6,0-0.6c-5.4,0.3-10.7,0.6-16.1,0.9
			C122.7,109,122.6,109.6,123,109.5z M119.1,112.2c0.4,0,0.9,0,1.3,0c0.4,0,0.4-0.6,0-0.6c-0.4,0-0.9,0-1.3,0
			C118.7,111.6,118.7,112.2,119.1,112.2z M122,111.9c0.5,0,1,0,1.6-0.2c0.4-0.1,0.2-0.7-0.2-0.6c-0.5,0.1-0.9,0.2-1.4,0.1
			C121.6,111.3,121.6,111.9,122,111.9z M126.8,111.5c5.1-0.5,10.2-0.6,15.4-0.4c0.4,0,0.4-0.6,0-0.6c-5.1-0.2-10.2-0.1-15.4,0.4
			C126.4,111,126.4,111.5,126.8,111.5z M119.8,115.1c-0.3,0.4-0.7,0.8-1.1,1.2c-0.2,0.2-0.1,0.4,0.1,0.5c0.6,0.2,1.2,0.3,1.8,0.3
			c0.4,0,0.4-0.6,0-0.6c-0.6,0-1.1-0.1-1.7-0.3c0,0.2,0.1,0.3,0.1,0.5c0.4-0.4,0.7-0.8,1.1-1.2C120.4,115.2,120,114.8,119.8,115.1z
			 M121.8,116.2c2.6-0.5,5.3-0.7,8-0.7c0.4,0,0.4-0.6,0-0.6c-2.8-0.1-5.5,0.2-8.2,0.7C121.3,115.7,121.4,116.3,121.8,116.2z
			 M130.6,114.8c1,0.5,2.1,0.2,3,0.7c0-0.2,0-0.3,0.1-0.5c-0.5,0.2-1,0.4-1.5,0.8c-0.3,0.2,0,0.7,0.3,0.5c0.4-0.3,0.9-0.5,1.4-0.7
			c0.2-0.1,0.3-0.4,0.1-0.5c-0.9-0.6-2.1-0.2-3-0.7C130.5,114.1,130.3,114.6,130.6,114.8z M156.3,101.2c-0.5,0.1-0.8,0.4-0.9,0.9
			c-0.1,0.3,0,0.6,0.1,0.9c0.2,0.9,0.1,1.3-0.7,1.7c-0.2,0.2-0.2,0.5,0.2,0.5c0.8,0,0.5,3.7,2.2,2.5c0.3-0.2,0-0.7-0.3-0.5
			c-0.8,0.6-0.7-1.3-0.8-1.5c0-0.2-0.1-0.4-0.2-0.6c-0.2-0.4-0.5-0.5-1-0.5c0.1,0.2,0.1,0.4,0.2,0.5c0.4-0.3,0.9-0.6,1.1-1.1
			c0.2-0.5-0.5-2.2,0.2-2.3C156.8,101.7,156.6,101.1,156.3,101.2z M160,101.4c0.7-0.1,0.9,0.3,0.8,1.2c-0.1,0.1-0.1,0.2-0.2,0.3
			c0,0.2-0.1,0.3-0.1,0.5c0,0.4,0.3,0.5,0.4,0.8c0.1,0.3,0,0.3-0.1,0.6c-0.1,0.8,1,1.4-0.1,2.1c-0.3,0.2,0,0.7,0.3,0.5
			c0.4-0.3,0.7-0.7,0.7-1.3c0-0.2-0.1-0.4-0.2-0.6c-0.1-0.5,0-0.8,0.1-1.3c0-0.1,0-0.2-0.1-0.3c-0.1,0-0.2-0.2-0.3-0.2
			c-0.5-0.5-0.2-0.7,0.1-1.2c0.1-0.3,0.2-0.6,0.1-0.9c-0.2-0.7-0.9-0.9-1.6-0.9C159.7,100.8,159.7,101.4,160,101.4z M138.8,104.5
			c3.1-0.3,6.1-0.5,9.2-0.7c0.4,0,0.4-0.6,0-0.6c-3.1,0.3-6.1,0.5-9.2,0.7C138.5,103.9,138.5,104.5,138.8,104.5z M152,103.6
			c0.7,0.1,1.4,0.1,2.1,0c0.4-0.1,0.2-0.6-0.2-0.6c-0.6,0.1-1.3,0.1-1.9,0C151.6,102.9,151.6,103.5,152,103.6z M120.9,120.2
			c5.1-0.3,10.3-0.7,15.4-1c0.4,0,0.4-0.6,0-0.6c-5.1,0.3-10.3,0.7-15.4,1C120.6,119.7,120.6,120.3,120.9,120.2z M139.7,118.8
			c2-0.2,3.9-0.4,5.9-0.5c0.4,0,0.4-0.6,0-0.6c-2,0.2-3.9,0.3-5.9,0.5C139.3,118.3,139.3,118.9,139.7,118.8z M149.9,118.1
			c3.8-0.4,7.7-0.7,11.5-0.9c0.4,0,0.4-0.6,0-0.6c-3.8,0.2-7.7,0.5-11.5,0.9C149.6,117.5,149.6,118.1,149.9,118.1z M123.2,122.2
			c-0.7,0.5-1.5,1-2.2,1.5c-0.2,0.1-0.2,0.5,0.1,0.5c0.8,0.2,1.5,0.3,2.3,0.5c0.4,0.1,0.5-0.5,0.2-0.6c-0.8-0.1-1.5-0.3-2.3-0.5
			c0,0.2,0,0.3,0.1,0.5c0.7-0.5,1.5-1,2.2-1.5C123.8,122.4,123.5,121.9,123.2,122.2z M126.2,121.8c-0.8,1-1.6,2-2.3,3.1
			c-0.2,0.3,0.3,0.6,0.5,0.3c0.7-1,1.4-2,2.2-2.9C126.8,122,126.4,121.5,126.2,121.8z M127.9,122.7c0.3,0.2,0.5,0.3,0.8,0.4
			c0.2,0.1,0.3,0.1,0.5,0.2c0.1,0,0.2,0.1,0.3,0.2c0-0.1-0.1-0.2-0.2-0.1c-0.3,0-0.7,0.3-1,0.4c-0.4,0.2-0.7,0.4-1,0.6
			c-0.3,0.2,0,0.7,0.3,0.5c0.4-0.3,0.9-0.6,1.4-0.8c0.3-0.1,1-0.2,1.1-0.6c0.1-0.3-0.3-0.5-0.6-0.7c-0.4-0.2-1-0.3-1.4-0.5
			C127.9,121.9,127.6,122.5,127.9,122.7z M134.4,123.5c2.4-0.2,4.8-0.4,7.2-0.3c0.4,0,0.4-0.6,0-0.6c-2.4-0.1-4.8,0.1-7.2,0.3
			C134,122.9,134,123.5,134.4,123.5z M146.7,122.6c4.5-0.5,9-0.7,13.5-0.6c0.4,0,0.4-0.6,0-0.6c-4.5-0.1-9,0.1-13.5,0.6
			C146.3,122.1,146.3,122.6,146.7,122.6z" class="colore8e8e8 svgShape"></path><path fill="#0b1d52" d="M180,112.3c-0.1,1-0.2,2-0.3,2.9c5.6-0.2,11.8-0.1,18.3,0.3c5.8,0.4,11.3,1,16.3,1.8c0.1-1.2,0.2-2.4,0.3-3.7
			c-2.2-0.4-5.2-1-8.7-1.5c-4.5-0.6-7.9-0.9-9.8-1c-4.7-0.3-7.1-0.5-10.3-0.1C183.4,111.4,181.3,111.9,180,112.3z" enable-background="new" opacity=".16" class="color0b1d52 svgShape"></path><path fill="#4c4c4c" d="M62.5,119.6c-0.6,1.7-1.4,4.3-1.8,7.4c-0.4,3.9-1.6,13.7,3.6,16.7c3.5,2.1,9.2,0.4,13.9-3.4
			c0.8,0.7,1.6,1.3,2.5,2c-4.8,2.9-9.7,5.8-14.5,8.8c3.4,2,6.8,4,10.2,6.1c3.7-2.2,7.3-4.4,11-6.5c1.9,0.9,3.7,1.8,5.6,2.7
			c-3.9,2.7-7.7,5.4-11.6,8.2c-6.7-3.3-13.4-6.7-20.2-10c-3.4-8.8-6.8-17.7-10.2-26.6C54.9,123.1,58.7,121.4,62.5,119.6z" enable-background="new" opacity=".12" class="color4c4c4c svgShape"></path><path fill="#4c4c4c" d="M203.3,109.7c0.5,1.1,1,2.7,1.4,4.7c0.1,0.8,1.2,7.3-1.6,12.9c-3,6.1-9.9,10-17.7,10.4
			c5.9,1.3,12.8,2.3,20.6,2.5c3.3,0.1,6.4,0,9.3-0.1c0.8-3.3,1.5-7.3,1.8-11.8c0.4-6.5-0.2-12.2-1-16.6
			C211.8,111,207.5,110.3,203.3,109.7z" enable-background="new" opacity=".08" class="color4c4c4c svgShape"></path><path fill="#4c4c4c" d="M155.2,96.7c0.7,1.3,1.5,3.2,1.9,5.6c0.9,5.8-1.7,10.5-3.5,13.7c-5.4,9.4-14.5,13.9-18.5,15.6
			c8.4-0.1,17.1-0.3,25.9-0.8c2-0.1,3.9-0.2,5.9-0.4c0.9-3.8,1.6-8.2,1.8-13.2c0.4-7.7-0.4-14.3-1.4-19.4
			C163.3,97.4,159.3,97.1,155.2,96.7z" enable-background="new" opacity=".09" class="color4c4c4c svgShape"></path><path fill="#555555" d="M149.8,219.9c0.2,1.3,0.4,2.7,0.5,4.1c0.2,1.6,0.3,3.2,0.3,4.7c0.2,0.3,0.4,0.7,0.9,1
			c0.7,0.5,1.5,0.5,2.3,0.5c2.4-0.1,3.5-0.1,4.1-0.2c1.8-0.4,3.6-0.7,4-1.9c0.3-0.8-0.3-1.6-0.3-1.7c-0.3-0.5-0.7-0.7-1.3-1
			c-0.4-0.3-1.2-0.6-2.3-0.8c-0.9-0.1-1.7,0-2.2,0.2c-0.3-2.1-0.5-4.1-0.8-6.1C153.3,219.2,151.6,219.6,149.8,219.9z" class="color555 svgShape"></path><path fill="#ffffff" d="M146.3,181.6c-1.6,1.7-1.1,3.5-1.7,14.5c-0.3,4.4-0.3,4.2-0.4,6.9c-0.2,6.1,0.1,10.2,0.3,12.3
			c0.1,1.5,0.3,2.8,0.4,3.7c1.1,0.6,3.1,1.4,5.5,1.1c1.4-0.1,2.5-0.6,3.3-0.9c1.7-0.7,3-1.7,3.8-2.4c-0.3-12.2-0.7-24.4-1-36.7
			C149.7,178.8,147.2,180.6,146.3,181.6z" class="colorfff svgShape"></path><path fill="#161616" d="M145,183.2c-1.1,11.8-1.2,23.6-0.4,35.4c0,0.4,0.6,0.4,0.6,0c-0.8-11.8-0.7-23.6,0.4-35.4
			C145.6,182.9,145,182.9,145,183.2z" class="color161616 svgShape"></path><path fill="#161616" d="M144.9,219.2c4.3,2.2,9.2,0.9,12.7-2.2c0.3-0.3-0.1-0.7-0.4-0.4c-3.3,3-7.9,4.2-12,2.1
			C144.8,218.5,144.5,219,144.9,219.2z" class="color161616 svgShape"></path><path fill="#161616" d="M156.1,180.6c0.3,12,0.6,23.9,0.9,35.9c0,0.4,0.6,0.4,0.6,0c-0.3-12-0.6-23.9-0.9-35.9
			C156.7,180.2,156.1,180.2,156.1,180.6z M149.6,220.2c0.5,2.3,0.8,4.7,0.9,7.1c0,0.4,0.6,0.4,0.6,0c-0.1-2.4-0.4-4.9-0.9-7.2
			C150.1,219.7,149.5,219.8,149.6,220.2z M154.8,218.7c0.1,2.5,0.3,5.1,0.7,7.6c0.1,0.4,0.6,0.2,0.6-0.2c-0.3-2.5-0.6-4.9-0.7-7.4
			C155.3,218.4,154.7,218.4,154.8,218.7z" class="color161616 svgShape"></path><path fill="#161616" d="M155.8,225c2.1-0.3,4.1,0.3,5.7,1.8c0.3,0.3,0.7-0.2,0.4-0.4c-1.7-1.5-3.9-2.2-6.1-1.9
			C155.4,224.5,155.4,225.1,155.8,225z" class="color161616 svgShape"></path><path fill="#161616" d="M150.4,227.1c-0.1,1.2,0,2.7,1.3,3.3c0.5,0.2,1.1,0.2,1.7,0.3c0.9,0.1,1.9,0.1,2.8,0.1c2.2-0.1,6.6-1,5.9-4.1
			c-0.1-0.4-0.6-0.2-0.6,0.2c0.6,2.7-3.9,3.4-5.7,3.4c-1,0-2,0-3-0.1c-1.7-0.2-2-1.4-1.8-2.9C151,226.7,150.5,226.7,150.4,227.1z" class="color161616 svgShape"></path><path fill="#4c4c4c" d="M145.4,183.1c1.9-0.7,3.8-1.4,5.7-2c-0.3,6.3-0.4,13.2-0.1,20.5c0.3,6.3,0.8,12.2,1.5,17.6
			c-0.4,0.2-0.8,0.3-1.3,0.4c-2.7,0.7-5.1-0.2-6.2-0.8c-0.5-6.4-0.8-13.6-0.6-21.3C144.5,192.5,144.9,187.7,145.4,183.1z" enable-background="new" opacity=".11" class="color4c4c4c svgShape"></path><path fill="#4c4c4c" d="M145.2,183.5c0.1,3.4,0.3,7.8,0.8,12.9c0.4,4,0.8,7.1,0.9,8c0.6,4.1,1.4,9.4,2.9,15.6
			c-1.6-0.4-3.3-0.8-4.9-1.1c-0.3-6.2-0.4-12.8-0.3-19.7C144.6,193.7,144.9,188.5,145.2,183.5z" enable-background="new" opacity=".1" class="color4c4c4c svgShape"></path><path fill="#999999" d="M141.1,197.6c0.1,0.6,0.3,1.5,0.5,2.6c1.1,6.9,1.1,11.8,1.2,16c0.1,3.6,0.3,8.7,1,15c-0.4,0.2-1,0.5-1.8,0.9
			c-1.8,0.9-4.3,2.2-6.6,4.6c-0.7,0.7-1.6,1.8-2.6,3.3c3.1,0.3,6.7,0.4,10.8,0.1c5-0.4,9.4-1.3,12.8-2.2c-1-0.9-2.2-1.8-3.5-2.7
			c-2.4-1.7-4.7-3-6.8-4.1c-0.5-4.5-0.8-9.3-1-14.2c-0.3-7.6-0.3-14.8,0-21.5C143.8,196.1,142.4,196.8,141.1,197.6z" class="color999 svgShape"></path><path fill="#cccccc" d="M126.7,188.1c0-0.9,1-1.6,3.1-3.1c1-0.7,3.6-2.5,8.1-3.5c3.9-0.9,7-0.6,10.6-0.3c5.2,0.4,7.6,1.5,8.3,1.8
			c1.9,0.9,3.3,1.9,4.3,2.6c-0.3,1.2-1,2.8-2.4,4.4c-1,1.1-3.5,3.6-10.7,4.1C138,194.8,126.7,191.4,126.7,188.1z" class="colorccc svgShape"></path><path fill="#999999" d="M127.3,187c-0.3,0.5-0.5,1.1-0.7,1.8c-0.7,2.5-0.3,4.7,0.1,6c1,0.5,2.5,1.1,4.4,1.6c5.7,1.7,10.3,1.5,14,1.2
			c4.9-0.3,8.1-0.5,11.8-2.4c2-1.1,3.5-2.3,4.5-3.2c-0.1-2.1-0.1-4.2-0.2-6.4c-1.6,1.1-3.5,2.1-5.5,2.9
			C143.7,193.5,131.8,189,127.3,187z" class="color999 svgShape"></path><path fill="#161616" d="M126.4,188.3c-0.4,2.2-0.4,4.4,0,6.6c0.1,0.4,0.6,0.2,0.6-0.2c-0.4-2.1-0.4-4.2,0-6.3
			C127,188.1,126.5,188,126.4,188.3z" class="color161616 svgShape"></path><path fill="#161616" d="M126.6,194.9c2.6,1.7,5.8,2.1,8.8,2.6c3.3,0.5,6.5,0.7,9.8,0.5c5.6-0.5,12.6-1,16.5-5.7
			c0.2-0.3-0.2-0.7-0.4-0.4c-1.8,2.2-4.4,3.5-7.2,4.2c-3,0.8-6.1,1.1-9.2,1.3c-3.2,0.2-6.5-0.1-9.7-0.5c-2.9-0.4-5.8-0.8-8.3-2.4
			C126.6,194.2,126.3,194.7,126.6,194.9z" class="color161616 svgShape"></path><path fill="#161616" d="M160.9,185.9c0.4,2,0.5,4,0.3,6.1c0,0.4,0.6,0.4,0.6,0c0.2-2.1,0-4.2-0.3-6.2
			C161.4,185.3,160.8,185.5,160.9,185.9z" class="color161616 svgShape"></path><path fill="#161616" d="M126.9,188.4c3.1-5.3,10-6.9,15.7-7.2c3.4-0.2,6.8,0.1,10.1,0.9c1.6,0.4,3.1,0.8,4.7,1.4
			c1.4,0.6,2.8,1.3,3.5,2.7c0.2,0.3,0.7,0,0.5-0.3c-1.4-2.7-5.2-3.6-7.9-4.3c-3.5-0.9-7.3-1.2-10.9-1c-5.9,0.3-13,2-16.2,7.5
			C126.2,188.4,126.7,188.7,126.9,188.4z M141,197.8c1.2,11,2,22.1,2.5,33.1c0,0.4,0.6,0.4,0.6,0c-0.4-11.1-1.2-22.1-2.5-33.1
			C141.6,197.4,141,197.4,141,197.8z M144.7,197.8c0,11.1,0.4,22.2,1.1,33.4c0,0.4,0.6,0.4,0.6,0c-0.7-11.1-1.1-22.2-1.1-33.4
			C145.3,197.4,144.7,197.4,144.7,197.8z" class="color161616 svgShape"></path><path fill="#161616" d="M143.4,230.7c-4.3,2-8.1,5.1-10.9,8.9c-0.1,0.1,0,0.4,0.2,0.4c4,0.7,8.1,0.3,12.1-0.1c3.9-0.4,7.9-0.9,11.7-2
			c0.2-0.1,0.3-0.3,0.1-0.5c-3.1-2.6-6.6-4.8-10.3-6.6c-0.3-0.2-0.6,0.3-0.3,0.5c3.6,1.7,7,3.9,10.1,6.5c0-0.2,0.1-0.3,0.1-0.5
			c-3.7,1.1-7.6,1.5-11.5,2c-4,0.4-8,0.8-11.9,0.1c0.1,0.1,0.1,0.3,0.2,0.4c2.8-3.8,6.4-6.8,10.7-8.7
			C144.1,231.1,143.8,230.6,143.4,230.7z" class="color161616 svgShape"></path><path fill="#555555" d="M123.6,179.5c0.4,1.8,0.9,3.5,1.4,5.3c-2.4-0.8-4.5-1.2-6-1.4c-1.1-0.2-5.7-0.9-6,0.1
			c-0.1,0.4,0.4,0.9,0.5,1c0.4,0.4,1,0.5,1.5,0.6c1,0.2,1.3,0.6,2.3,1.1c1.6,0.8,4.9,2,8.7,2.7c1.3,0.2,2.9,0.5,5,0.5
			c-0.8-3.5-1.6-6.9-2.4-10.4C126.8,179.1,125.2,179.3,123.6,179.5z" class="color555 svgShape"></path><path fill="#ffffff" d="M122.8,130.9c-0.9,0.3-1.6,1-2.6,3.2c-1.7,3.4-2.3,5.8-2.3,5.8c-1.6,7.2-2.4,10.8-2.7,13.7
			c-0.9,8.9,0.6,9.3,0.5,18.6c0,0.7,0,2.2,0.9,3.7c1.4,2.3,4.1,3,4.9,3.2c2.2,0.5,4.3,0.2,6.1-0.2c0.5-0.1,0.9-0.2,1.2-0.3
			c1.4,1.1,2.7,1.9,3.6,2.4c1.8,0.9,3.3,1.8,5.4,2c1.3,0.2,2.6,0,3.2,0c1-0.1,1.8-0.2,2.4-0.3c0.9,0.3,2.3,0.7,4,0.7
			c1.1,0,4.7,0,7.8-2.3c2.8-2.1,3.8-4.9,4.5-6.9c0.7-2,3.2-9.5-0.6-13.5c-3.3-3.5-9.6-2.5-14.6-1.7c-2.4,0.4-4.4,1-5.8,1.5
			c-2.3-6-4-10.7-5.2-13.9c-1.1-3.1-2.7-6-3.7-9.1c-0.9-2.8-1.3-5-3.3-6.1C126.4,131.2,124.6,130.2,122.8,130.9z" class="colorfff svgShape"></path><path fill="#161616" d="M143,183.1c5.1,1.2,11,0.4,14.6-3.9c1.8-2.1,2.3-4.8,2.8-7.5c0.5-2.8,0.8-5.6-0.1-8.3
			c-0.1-0.3-0.7-0.2-0.6,0.2c0.9,2.6,0.6,5.3,0.1,8c-0.4,2.6-1,5.2-2.7,7.2c-3.4,4.1-9.1,4.9-14,3.7
			C142.8,182.4,142.6,183,143,183.1z M131.4,141.1c-0.3-2.6-1-5.3-2.2-7.6c-1-1.7-2.5-3.3-4.6-3.2c-2.2,0.1-3.8,1.9-4.8,3.7
			c-1.2,2.4-2,5.2-2.7,7.8c-1.5,5.4-2.3,10.9-2.5,16.5c-0.1,2.9,0,5.9,0.2,8.8c0.2,2.7,0.4,5.5,1.2,8.1c0.6,2.2,3.6,3.5,5.6,4
			c2.4,0.6,5,0.4,7.3-0.6c0.3-0.2,0-0.7-0.3-0.5c-2.1,0.9-4.4,1.1-6.6,0.6c-1.9-0.4-4.8-1.6-5.5-3.7c-0.3-1.1-0.4-2.3-0.6-3.4
			c-0.2-1.4-0.4-2.7-0.5-4.1c-0.2-2.3-0.3-4.7-0.3-7.1c0-4.9,0.5-9.9,1.6-14.7c0.5-2.3,1.1-4.6,1.8-6.8c0.7-2.2,1.4-4.9,3.1-6.6
			c0.9-1,2.3-1.6,3.7-1.4c1.3,0.3,2.3,1.3,3,2.4c1.5,2.2,2.2,5.1,2.5,7.7C130.9,141.5,131.5,141.5,131.4,141.1z" class="color161616 svgShape"></path><path fill="#161616" d="M121.3,146.9c-0.7,7.1,0.1,14.3,2.2,21c1,3.3,2.2,6.9,4.2,9.6c1.8,2.5,4.7,4.1,7.6,5c3.3,1.1,7,1.1,10.2-0.5
			c0.3-0.2,0-0.7-0.3-0.5c-2.9,1.5-6.2,1.5-9.3,0.6c-3.1-0.9-6.2-2.7-8.1-5.4c-1.8-2.7-2.9-6-3.8-9.1c-1-3.2-1.6-6.4-2-9.7
			c-0.4-3.7-0.4-7.4-0.1-11C121.9,146.5,121.3,146.5,121.3,146.9z" class="color161616 svgShape"></path><path fill="#161616" d="M120,144.8c0.1,2.5,0.5,5,1.1,7.5c0.1,0.4,0.7,0.2,0.6-0.2c-0.6-2.4-1-4.9-1.1-7.3
			C120.6,144.4,120,144.4,120,144.8z M131,141.1c3.7,8.7,6.9,17.7,9.7,26.7c0.1,0.3,0.7,0.2,0.6-0.2c-2.8-9.1-6-18-9.7-26.7
			C131.4,140.7,130.9,140.8,131,141.1z M123.2,179.7c0.5,1.7,1,3.5,1.5,5.2c0.1,0.4,0.7,0.2,0.6-0.2c-0.5-1.7-1-3.5-1.5-5.2
			C123.7,179.2,123.1,179.4,123.2,179.7z" class="color161616 svgShape"></path><path fill="#161616" d="M125,184.6c-3.9-1.5-8-2.1-12.2-1.5c-0.2,0-0.4,0.2-0.3,0.4c0.5,1.2,1.9,1.6,3,2.1c1.6,0.7,3.2,1.4,4.9,2
			c3.3,1.2,6.7,2,10.2,1.9c0.4,0,0.4-0.6,0-0.6c-3.1,0.1-6.1-0.5-9.1-1.5c-1.4-0.5-2.8-1-4.2-1.6c-0.7-0.3-1.5-0.6-2.2-0.9
			c-0.8-0.3-1.8-0.6-2.1-1.5c-0.1,0.1-0.2,0.3-0.3,0.4c4.1-0.5,8.2,0,12,1.5C125.2,185.3,125.3,184.8,125,184.6z" class="color161616 svgShape"></path><path fill="#161616" d="M128.1,178.7c0.4,3.6,2.1,6.9,2.4,10.5c0,0.4,0.6,0.4,0.6,0c-0.3-3.6-2-6.9-2.4-10.5
			C128.6,178.3,128.1,178.3,128.1,178.7z" class="color161616 svgShape"></path><path fill="#4c4c4c" d="M122.4,178.9c-0.7-1.7-1.6-4.2-2.4-7.3c-0.4-1.3-2.7-10.1-2.2-21.4c0.1-3,0.5-6.2,2.8-8.6
			c0.9-0.9,1.9-1.9,2.8-1.7c3.7,0.9-3,20.6,6.4,31.3c4.8,5.5,11.8,6.2,12.9,6.3c10,0.9,16.7-6.3,17.5-7.2c0.1,1.2,0,3-0.8,5.1
			c-1.4,3.7-4.2,5.6-5.3,6.3c-4.8,2.9-9.9,1.6-10.7,1.3c-1.4,0.2-3.3,0.3-5.4,0c-4.8-0.7-8-3.3-9.4-4.5c-0.6,0.3-1.7,0.8-3.2,0.9
			C124,179.3,123,179.1,122.4,178.9z" enable-background="new" opacity=".1" class="color4c4c4c svgShape"></path><path fill="#4c4c4c" d="M120.8,144.6c0.3,0,0.3,2.3,1.6,9.7c1.5,8.8,2.2,13.2,3.4,15.7c1.4,3.2,5,8.9,15.8,13.1
			c-1.6,0.1-4.1,0-7.1-1.1c-2.8-1-4.8-2.5-5.9-3.5c-1.2,0.3-2.4,0.5-3.6,0.8c-0.7-2.2-1.6-5.2-2.4-8.8
			C119.5,156.9,120.2,144.7,120.8,144.6z" enable-background="new" opacity=".13" class="color4c4c4c svgShape"></path><path fill="#ffffff" d="M95.2,136.8c-0.1,0.4,0.5,0.9,1,1.2c0.8,0.4,1.6,0.1,1.7,0c0,0,1.8-0.2,3.4,0.8c0.5,0.3,1,0.9,1.9,2.1
			c1.6,2.2,1.9,3,2.9,3.7c0.8,0.5,1.5,0.7,2,0.8c0.5,0.5,1.2,1.3,2.1,2.3c3.1,3.6,3.3,4.3,4.8,5.6c1.6,1.4,3.5,3.1,5.8,2.8
			c1.2-0.1,2.2-0.8,3.7-2.3c3.2-3.2,5.4-6.8,7.4-10.9c2.2-4.4,2.6-6.5,2.9-7.5c0.1-0.6,1.3-6.4-0.4-7.1c-0.6-0.3-1.5,0.3-2.7,1.3
			c-4.6,3.6-7.3,7.5-7.4,7.7c-1.4,2.1-3.2,4.9-5,8.6c-2.8-1.4-5.5-2.9-8.3-4.3c-0.2-0.4-0.4-0.9-0.4-1.7c0-1.2,0.6-1.6,1-2.9
			c0.4-1.4,0.5-3.2-0.2-3.5c-0.5-0.2-1.4,0.3-1.8,1c-0.4,0.7-0.2,1.3-0.6,1.6c-0.5,0.3-1.5-0.3-1.6-0.4c-1-0.7-1-1.6-1.8-3.1
			c-0.9-1.6-2-2.5-2.7-3c-1-0.7-2.1-1.6-3.1-1.3c-0.2,0-0.9,0.3-1.1,0.9c-0.1,0.3-0.1,0.6,0,0.8c-0.1-0.1-0.8-0.5-1.6-0.2
			c-0.5,0.2-1,0.7-1.1,1.3c0,0.3,0,0.5,0,0.6c-0.1,0-0.9-0.3-1.5,0.3c-0.1,0.1-0.4,0.4-0.4,0.8c0,0.3,0.2,0.6,0.6,0.9
			c0.9,0.7,1.5,0.9,2.3,1.3c0.4,0.2,0.9,0.6,1.6,1.1C97.4,135.9,95.3,136,95.2,136.8z" class="colorfff svgShape"></path><path fill="#161616" d="M119.3,146c3.4-6.6,7.1-13.7,14.1-17.1c0.3-0.2,0-0.7-0.3-0.5c-7,3.5-10.9,10.6-14.3,17.3
			C118.7,146,119.2,146.3,119.3,146z" class="color161616 svgShape"></path><path fill="#161616" d="M110.8,141.9c3,2,6.7,2.8,9.3,5.4c0.3,0.3,0.7-0.1,0.4-0.4c-2.6-2.7-6.4-3.5-9.4-5.5
			C110.8,141.2,110.5,141.7,110.8,141.9z" class="color161616 svgShape"></path><path fill="#161616" d="M108.4,145.8c1.4,2.4,3.2,4.7,5.2,6.6c1.8,1.7,4.2,3.9,6.9,4c2.4,0.1,4.1-2,5.4-3.8c1.9-2.7,3.7-5.5,5.4-8.3
			c1.7-2.9,3.5-6,3.6-9.5c0-0.4-0.6-0.4-0.6,0c-0.1,3.7-2.2,7-4.1,10.1c-1.8,3-3.6,6.2-5.9,8.8c-1.1,1.2-2.4,2.2-4.1,2.1
			c-1.9-0.2-3.5-1.5-4.9-2.7c-2.5-2.1-4.7-4.7-6.3-7.6C108.7,145.1,108.2,145.4,108.4,145.8z" class="color161616 svgShape"></path><path fill="#161616" d="M108.9,145.4c-0.8-0.4-1.7-0.5-2.4-0.9c-0.8-0.4-1.3-1.2-1.8-1.9c-0.9-1.3-1.7-2.7-3-3.7
			c-0.6-0.5-1.3-0.9-2-1c-0.8-0.2-1.6-0.1-2.4-0.1c-0.5,0-1.6,0-1.6-0.8c-0.1-0.8,1-0.7,1.5-0.7c1-0.1,1.9,0,2.9,0.4
			c0.3,0.1,0.5-0.4,0.2-0.6c-1.1-0.4-2.2-0.5-3.4-0.4c-0.6,0-1.3,0-1.6,0.6c-0.3,0.5-0.1,1.1,0.3,1.5c0.6,0.7,1.6,0.5,2.4,0.4
			c2.9-0.3,4.6,2,6.1,4.2c0.5,0.8,1,1.5,1.7,2.1c0.9,0.7,2,0.8,2.9,1.3C108.9,146.1,109.2,145.5,108.9,145.4z M111.2,141.7
			c-1-1.2-0.1-3.1,0.3-4.4c0.3-0.9,0.7-2.3,0.2-3.2c-0.3-0.6-0.9-0.9-1.6-0.7c-0.3,0.1-0.6,0.4-0.8,0.7c-0.3,0.4-0.3,1.7-0.9,1.8
			c-0.4,0.1-0.2,0.6,0.2,0.6c0.7-0.2,0.8-0.8,1-1.4c0.1-0.3,0.3-1,0.7-1.1c0.3,0.2,0.7,0.4,1,0.6c0,0.2,0,0.3,0.1,0.5
			c0,0.7-0.2,1.4-0.3,2.1c-0.5,1.6-1.4,3.5-0.2,5C111,142.4,111.4,141.9,111.2,141.7z M95.5,133.7c-0.3-0.2-0.6-0.3-0.8-0.5
			c-0.3-0.2-0.4-0.4-0.2-0.7c0-0.4,0.2-0.6,0.7-0.5c0.9-0.1,1.6,0.4,2.4,0.7c1.3,0.6,2.5,1.3,3.6,2.2c0.3,0.3,0.7-0.2,0.4-0.4
			c-1-0.8-2-1.5-3.1-2c-1.1-0.5-2.2-1.2-3.5-1.1c-0.6,0.1-1.4,0.3-1.4,1.1c0,0.9,0.9,1.4,1.6,1.8C95.5,134.4,95.8,133.9,95.5,133.7z
			" class="color161616 svgShape"></path><path fill="#161616" d="M96.2,131.4c-1-0.8,0.3-1.3,0.7-1.4c0.4-0.1,0.8,0,1.1,0.2c0.6,0.2,1.2,0.6,1.7,0.9c1,0.7,2,1.5,2.9,2.5
			c0.3,0.3,0.7-0.1,0.4-0.4c-1.5-1.5-3.5-3.6-5.7-3.8c-1.4-0.1-2.9,1.4-1.4,2.5C96.2,132.1,96.5,131.6,96.2,131.4z" class="color161616 svgShape"></path><path fill="#161616" d="M98.7,129.7c-0.7-0.9,0.9-1.2,1.3-1.1c0.2,0,0.4,0.1,0.6,0.2c0.6,0.2,1.2,0.6,1.7,1c0.9,0.7,1.7,1.6,2.4,2.6
			c0.2,0.3,0.7,0,0.5-0.3c-1.2-1.6-2.7-3.3-4.7-3.9c-0.7-0.2-1.6-0.3-2.1,0.3c-0.5,0.5-0.5,1.2-0.1,1.7
			C98.6,130.3,99,129.9,98.7,129.7z" class="color161616 svgShape"></path><path fill="#161616" d="M104.5,131.8c0.7,1.2,1.4,2.5,2.2,3.7c0.5,0.7,1.2,1.2,2.1,0.9c0.3-0.1,0.2-0.7-0.2-0.6
			c-1.2,0.5-1.8-1.2-2.3-2c-0.5-0.8-0.9-1.6-1.4-2.3C104.8,131.2,104.3,131.5,104.5,131.8z M95,134c1.1,0.7,2.2,1.4,3.3,2.1
			c0.3,0.2,0.6-0.3,0.3-0.5c-1.1-0.7-2.2-1.4-3.3-2.1C95,133.3,94.7,133.8,95,134z" class="color161616 svgShape"></path><path fill="#4c4c4c" d="M94.4,132.1c0.8-0.4,2,0.7,2.7,1.3c3.6,2.9,3.8,1.9,5.8,4c2.1,2.1,2,3.3,4.1,4.6c1,0.6,1.9,0.9,2.6,1.1
			c0.4,0.5,0.9,1.3,1.6,2.2c2.6,3.2,3.9,4.9,6,5.7c0.2,0.1,3.5,1.3,6.3-0.4c2.2-1.3,2.2-3.4,4.8-10.1c3.3-8.5,4.6-9.6,5.4-9.5
			c0.5,0,1,0.5,1.2,0.9c0.4,0.8,0.1,1.6-0.4,3.4c-0.4,1.8-0.3,1.9-0.6,2.9c-0.8,2.9-2.1,4.5-6,10.9c-0.6,1-1.5,2.5-2.9,4.1
			c-1.2,1.4-2,2.3-3.2,2.7c-2,0.7-4-0.4-4.9-0.9c-1.3-0.7-2.2-1.5-3.6-3.2c-1.3-1.5-3-3.7-4.8-6.6c-0.4,0-1-0.1-1.7-0.4
			c-0.6-0.3-1.4-0.8-3.3-3.4c-1.3-1.9-1.3-2.2-2-2.6c-1.1-0.7-2.4-0.8-3.1-0.9c-1.6-0.2-2.4,0.2-2.8-0.4c-0.3-0.3-0.3-0.9,0-1.3
			c0.7-0.8,2.9,0.2,3-0.1c0.1-0.2-0.8-0.6-2.4-1.6c-1.8-1.1-2.4-1.5-2.4-2C94,132.4,94.2,132.2,94.4,132.1z" enable-background="new" opacity=".12" class="color4c4c4c svgShape"></path><path fill="#ffffff" d="M158.1,124.7c-1,0.2-1.5,2.2-1.9,4c-0.5,2.4-0.5,4.4-0.5,5.9c0.1,4.2,1,8.1,2.2,10.5c0.6,1.3,1,1.4,1.7,3
			c0.2,0.5,0.4,1,0.9,1.4c0.9,0.7,2.1,0.4,2.2,0.4c1.2-0.3,1.8-1.3,2.2-1.9c0.9-1.5,0.9-3,0.7-5.7c-0.3-4-0.5-6-1.1-8.1
			c-0.5-1.9-1.5-4.2-3.1-6.7C160.2,126.1,159.1,124.5,158.1,124.7z" class="colorfff svgShape"></path><path fill="#161616" d="M158.1,125.2c1-0.1,1.8,1.2,2.3,1.9c0.5,0.7,0.9,1.4,1.4,2.1c0.8,1.5,1.5,3.1,2,4.7c1,3.2,1.4,6.6,1.4,10
			c0,1.7,0,4-1.5,5.3c-0.7,0.6-1.7,0.9-2.5,0.5c-0.9-0.4-1.4-1.6-1.8-2.4c-1.8-3.2-2.9-6.8-3.3-10.4c-0.4-4-0.1-8.3,2.1-11.8
			c0.2-0.3-0.3-0.6-0.5-0.3c-2.2,3.5-2.6,8-2.1,12c0.4,4.2,1.8,8.3,4.1,11.9c0.8,1.3,2,2.1,3.5,1.5c1.6-0.6,2.3-2.2,2.5-3.8
			c0.5-3.8,0-8-1-11.7c-0.6-2.1-1.5-4.2-2.6-6.2c-0.5-0.9-1.2-1.8-1.8-2.7c-0.6-0.7-1.2-1.4-2.1-1.3
			C157.7,124.7,157.7,125.3,158.1,125.2z" class="color161616 svgShape"></path><path fill="#4c4c4c" d="M158.7,125.2c-0.5,2.5-0.8,5.3-0.4,8.4c0.3,3,1,5.2,2,8.1c0.8,2.3,1.8,4.9,3.3,7.9c-0.4,0.3-1,0.5-1.7,0.4
			c-1.4-0.2-2.2-1.9-2.8-3.1c-2.1-4.6-3.1-6.9-3.3-10.8c-0.3-5.4,1.2-11.3,2.4-11.3C158.3,124.8,158.5,125,158.7,125.2z" enable-background="new" opacity=".11" class="color4c4c4c svgShape"></path><path fill="#0ab9ff" d="M131.4,128.5c-0.1,0.8-0.2,2-0.3,3.4c-0.1,1.1-0.3,4.2-0.2,7.1c0.2,5.8,1.5,10.5,2.2,13.3
			c0.7,2.5,1.5,4.6,2.1,6.1c0.1,0.6,0.2,1.4,0.5,2.2c1.4,4.2,5,6.3,5.9,6.8c4.4,2.4,8.7,1.5,10,1.3c1.3-0.3,5.4-1.2,8.1-4.9
			c0.9-1.2,1.7-2.7,2.4-6.9c0.3-1.9,1.2-7,0.6-15.5c-0.6-8.8-2-12-2.9-13.7c-0.7-1.5-1.5-2.7-2.1-3.4c-4.5-1.9-8.3-1.9-10.4-1.8
			c-3.5,0.2-6.3,1.3-8.9,2.3C135.5,126.1,133.1,127.5,131.4,128.5z" class="color06f svgShape"></path><path fill="#161616" d="M131,129.1c-1.4,10.2,0.1,20.7,4.4,30.1c0.2,0.3,0.7,0,0.5-0.3c-4.2-9.2-5.7-19.6-4.3-29.6
			C131.6,128.8,131,128.7,131,129.1z" class="color161616 svgShape"></path><path fill="#161616" d="M134.6,157.7c0.7,4.9,4.2,9.1,8.8,10.7c4.9,1.8,10.8,0.7,14.8-2.7c2.1-1.8,3.5-4.2,3.7-6.9
			c0-0.4-0.5-0.4-0.6,0c-0.6,6.5-7.9,10.2-13.8,9.9c-6.2-0.4-11.5-5-12.4-11.2C135.1,157.2,134.5,157.3,134.6,157.7z M131.4,129.1
			c7.7-4.8,17.3-8.3,26.2-4.5c0.3,0.2,0.6-0.3,0.3-0.5c-9.1-3.9-18.9-0.5-26.8,4.5C130.8,128.8,131,129.3,131.4,129.1z" class="color161616 svgShape"></path><path fill="#161616" d="M157.6,124.5c2.1,1.9,2.9,5.1,3.5,7.8c0.7,2.9,1,6,1.3,9c0.5,6,0.3,12-0.9,17.9c-0.1,0.4,0.5,0.5,0.6,0.2
			c1.3-6.2,1.4-12.5,0.8-18.8c-0.3-3-0.7-6.1-1.4-9.1c-0.6-2.6-1.5-5.5-3.5-7.4C157.7,123.9,157.3,124.3,157.6,124.5z M138,161
			c2.4,2.2,5.4,3.6,8.7,4c0.4,0,0.4-0.5,0-0.6c-3.1-0.4-6-1.7-8.3-3.9C138.2,160.3,137.7,160.7,138,161z" class="color161616 svgShape"></path><path fill="#4c4c4c" d="M146.8,122.8c0.7,1.1,1.5,2.3,2.2,3.4c1.5,3.6,3.3,8.9,4.5,15.5c0.6,3.3,1.1,6.4,0.9,10.3
			c-0.2,3.5-1.1,9.8-5.6,17.1c1,0,2.4-0.1,4.1-0.7c0.7-0.2,5.7-1.9,8.1-6.6c1-2,1.2-3.7,1.3-5.9c0.8-11.4,0.1-18.8-0.4-21.3
			c-0.3-2.1-0.9-4.5-2.2-7.3c-0.7-1.4-1.5-2.5-2-3.2c-1.3-0.6-3.3-1.3-5.8-1.5C149.9,122.4,148.1,122.6,146.8,122.8z" enable-background="new" opacity=".15" class="color4c4c4c svgShape"></path><path fill="#4c4c4c" d="M160.1,128.9c-0.7,0-1,4.2-1.3,7.1c-0.5,6.5-0.1,11.1-0.1,12.8c0.2,4.5-0.9,11.1-6.6,19.7
			c0.9-0.2,2.3-0.7,3.8-1.5c1.3-0.7,3.1-1.7,4.4-3.9c0.4-0.7,1.1-2.1,1.4-4c0.6-3.6,1.2-8.7,1-14.8C162.5,137,161,128.9,160.1,128.9
			z" enable-background="new" opacity=".11" class="color4c4c4c svgShape"></path><path fill="#999999" d="M132,143.3c1.1,15.8,0.2,31.6-0.7,47.4c0,0.8,1.1,0.7,1.2,0c0.9-15.8,1.8-31.6,0.7-47.4
			C133.1,142.6,132,142.6,132,143.3z" class="color999 svgShape"></path><path fill="#999999" stroke="#999999" stroke-miterlimit="6.957" stroke-width="1.391" d="M132.4,142.6c5.7,0.2,12,0.2,18.7-0.2c5.1-0.3,9.9-0.8,14.3-1.5c-0.1,4.9-0.2,9.8-0.3,14.7
			c-4.9,1-10.6,1.8-16.9,2.1c-5.6,0.3-10.8,0.1-15.3-0.2C132.8,152.6,132.6,147.6,132.4,142.6z" class="color999 svgShape colorStroke999 svgStroke"></path><path fill="#999999" d="M164.6,144.2c-1.4,14.9-2.9,29.7-4.3,44.6c-0.1,0.7,1.1,0.7,1.2,0c1.4-14.9,2.9-29.7,4.3-44.6
			C165.8,143.5,164.7,143.5,164.6,144.2z" class="color999 svgShape"></path><path fill="#ffffff" d="M129.6,111.6c-0.1,0.4,0,1.1,0.2,2.1c0,0.3,0.2,0.8,0.4,1.7c0.5,1.6,1,2.7,1.2,3c1.4,2.8,3.1,4.6,3.6,5.1
			c0.8,0.8,1.6,1.4,2.1,1.8c1.7-0.7,3.4-1.4,5.1-2.1c0.6-0.4,1.5-1.3,2.2-2.6c1.1-2.4,0.5-5.1-0.4-6.6
			C140.8,108.7,130.3,109.7,129.6,111.6z" class="colorfff svgShape"></path><path fill="#161616" d="M129.3,113.2c0.6,2.6,1.6,5.1,2.9,7.4c0.7,1.1,1.4,2.1,2.2,3.1c0.7,0.9,1.5,1.7,2.6,2
			c0.4,0.1,0.5-0.5,0.2-0.6c-1.2-0.3-2-1.4-2.8-2.3c-0.8-0.9-1.5-2-2.1-3c-1.2-2.1-2.1-4.4-2.6-6.7
			C129.8,112.7,129.2,112.8,129.3,113.2z" class="color161616 svgShape"></path><path fill="#161616" d="M133.7,118c-0.1-1.7,1.9-1.2,2.6-0.3c0.8,1,0.6,3.2-1.1,2.9c-0.4-0.1-0.5,0.5-0.2,0.6
			c2.2,0.4,2.9-2.3,1.8-3.8c-1-1.3-3.8-1.6-3.6,0.6C133.1,118.3,133.7,118.3,133.7,118z" class="color161616 svgShape"></path><path fill="#0b1d52" d="M129.4,112.8c-0.3-0.9-0.7-2.3,0.1-3.7c0.7-1.2,1.8-1.7,2.3-1.9c0-0.3-0.1-1.8,1.1-3c1.2-1.3,2.7-1.3,3-1.3
			c0.5-0.4,1.2-0.8,2.1-1.2c0.3-0.1,1.9-0.7,3.7-0.4c2.5,0.4,2.9,1.9,5.7,3c0.9,0.4,2.4,0.9,4.4,0.9c-0.5,0.6-1,1.1-1.5,1.7
			c0.4,0.4,0.9,1,1.2,1.9c0.2,0.4,0.5,1.5,0.5,3.4c-0.1,1.9-0.5,3.4-0.9,4.7c-0.7,2.3-1.1,3-0.7,3.9c0.4,1,1.5,1.3,1.4,1.8
			c-0.2,0.5-1.5,0.5-2.5,0.4c-1.4-0.2-2.3-0.8-2.5-0.6c-0.2,0.3,1.1,1.1,0.9,1.7c-0.3,0.8-2.8,0.6-4.6,0.2c-0.6-0.1-1.7-0.5-3-1.2
			c-1.6-0.9-2.7-2-3.4-2.8c0.5-1.1,0.4-2.3-0.2-3.1c-0.1-0.1-1-1.3-2.2-0.9c-0.6,0.2-1,0.8-1.1,0.9
			C132.4,116.9,130.2,115.5,129.4,112.8z" class="color0b1d52 svgShape"></path><path fill="#4c4c4c" d="M131.8,107.3c0.4,1.2,3.1,1,5,1.6c1.4,0.5,3.3,1.7,5,5.1c-0.5-1.5-2.6-7.7-7.7-9.1c-0.5-0.1-1-0.2-1.6-0.3
			c-0.2,0.2-0.6,0.8-0.7,1.5C131.8,106.2,131.6,106.9,131.8,107.3z" enable-background="new" opacity=".24" class="color4c4c4c svgShape"></path><path fill="#4c4c4c" d="M135.9,102.7c0.3-0.3,0.9-0.6,1.5-0.9c0.5-0.2,1-0.3,1.3-0.4c1,0.9,2.5,2,4.6,2.8c3.5,1.4,6.7,1.2,8.3,1
			c-0.3,0.5-0.7,1.1-1.4,1.6c-2.7,1.9-6.7,0.3-8.6-0.5C140.2,105.9,138.1,104.8,135.9,102.7z" enable-background="new" opacity=".17" class="color4c4c4c svgShape"></path><path fill="#4c4c4c" d="M145.5,116c-0.3,0.1,0.1,2.3,0.2,2.9c0.3,1.5,0.8,2.7,1.2,3.5c0.6,0.2,1.2,0.4,1.8,0.6
			C146.4,117.2,145.7,115.9,145.5,116z" enable-background="new" opacity=".14" class="color4c4c4c svgShape"></path><path fill="#4c4c4c" d="M136.3,118.4c0.1,0.5,0.1,0.9-0.2,1.3c-0.3,0.4-0.8,0.4-1.2,1c-0.2,0.2-0.2,0.3-0.1,0.4
			c0.1,0.2,0.5,0.1,0.7,0.1c1,0,1.6,1.1,2.3,1.7c0.6,0.5,1.5,1,3.3,1.1c-0.9-0.5-1.8-1.1-2.9-1.9c-0.6-0.5-1.1-0.9-1.5-1.4
			c0.2-0.4,0.5-1.4,0.2-2.3c-0.3-0.7-0.9-1.3-1-1.2C135.8,117.1,136.2,117.6,136.3,118.4z" enable-background="new" opacity=".12" class="color4c4c4c svgShape"></path></svg></g></svg>